<?xml version="1.0" standalone="no"?>
<!DOCTYPE svg PUBLIC "-//W3C//DTD SVG 1.1//EN" "http://www.w3.org/Graphics/SVG/1.1/DTD/svg11.dtd" >
<svg xmlns="http://www.w3.org/2000/svg">
<metadata></metadata>
<defs>
<font id="liberatorlight" horiz-adv-x="395" >
<font-face units-per-em="2048" ascent="1536" descent="-512" />
<missing-glyph horiz-adv-x="491" />
<glyph unicode="fi" horiz-adv-x="1392" d="M115 29v1372q0 12 8 20.5t20 8.5h744q11 0 19.5 -8.5t8.5 -20.5v-133q0 -29 -16 -29h-594v-428h490q11 0 19.5 -8.5t8.5 -20.5v-133q0 -12 -8.5 -20t-19.5 -8h-490v-592q0 -12 -8.5 -20.5t-20.5 -8.5h-133q-12 0 -20 8.5t-8 20.5zM1087 29v1370q0 12 8.5 21.5t20.5 9.5 h133q12 0 20.5 -9.5t8.5 -21.5v-1370q0 -12 -8.5 -20.5t-20.5 -8.5h-133q-12 0 -20.5 8.5t-8.5 20.5z" />
<glyph unicode="fl" horiz-adv-x="1953" d="M115 29v1372q0 12 8 20.5t20 8.5h744q11 0 19.5 -8.5t8.5 -20.5v-133q0 -29 -16 -29h-594v-428h490q11 0 19.5 -8.5t8.5 -20.5v-133q0 -12 -8.5 -20t-19.5 -8h-490v-592q0 -12 -8.5 -20.5t-20.5 -8.5h-133q-12 0 -20 8.5t-8 20.5zM1087 29v1376q0 10 9 17.5t20 7.5h133 q11 0 20 -7.5t9 -17.5v-1215h602q12 0 20.5 -8t8.5 -20v-133q0 -12 -8.5 -20.5t-20.5 -8.5h-764q-12 0 -20.5 8.5t-8.5 20.5z" />
<glyph unicode="&#xd;" horiz-adv-x="491" />
<glyph unicode=" "  horiz-adv-x="491" />
<glyph unicode="&#x09;" horiz-adv-x="491" />
<glyph unicode="&#xa0;" horiz-adv-x="491" />
<glyph unicode="!" horiz-adv-x="397" d="M102 25v168q0 12 8.5 20t20.5 8h135q12 0 20.5 -8t8.5 -20v-168q0 -10 -9 -17.5t-20 -7.5h-135q-11 0 -20 7.5t-9 17.5zM102 489v891q0 12 8.5 20.5t20.5 8.5h135q12 0 20.5 -8.5t8.5 -20.5v-891q0 -9 -9 -16.5t-20 -7.5h-135q-11 0 -20 7.5t-9 16.5z" />
<glyph unicode="&#x22;" horiz-adv-x="661" d="M72 1128v279q0 8 7 14t17 6h140q12 0 20 -8t8 -20v-279q0 -8 -7 -14.5t-17 -5.5h-140q-12 0 -20 8t-8 20zM397 1128v279q0 8 7.5 14t17.5 6h139q12 0 20.5 -8t8.5 -20v-279q0 -8 -7.5 -14.5t-17.5 -5.5h-139q-12 0 -20.5 8t-8.5 20z" />
<glyph unicode="#" horiz-adv-x="1505" d="M72 412v135q0 11 7 19t17 9h242l100 279h-342q-10 1 -17 9.5t-7 19.5v135q0 11 7 20t17 9h412l127 354q11 29 31 29h139q37 0 26 -37l-122 -346h331l127 354q11 29 31 29h139q18 0 25.5 -10t1.5 -27l-123 -346h164q11 0 20 -8.5t9 -20.5v-135q0 -12 -9 -20.5t-20 -8.5 h-231l-99 -279h330q11 0 20 -8t9 -20v-135q0 -12 -9 -20.5t-20 -8.5h-397l-125 -354q-5 -11 -15.5 -20t-21.5 -9h-148q-18 0 -25.5 9t-2.5 20l131 354h-326l-125 -354q-5 -11 -15.5 -20t-21.5 -9h-147q-18 0 -26 9t-3 20l131 354h-172q-10 1 -17 9.5t-7 19.5zM543 575h327 l101 279h-330z" />
<glyph unicode="$" horiz-adv-x="1007" d="M100 295v162q0 12 8.5 21t20.5 9h135q12 0 20.5 -9t8.5 -21v-158h375l41 39q6 6 6 18v213q0 9 -10 19l-37 35h-383q-27 0 -47 20l-115 117q-23 23 -23 51v330q0 30 23 53l115 117q20 20 53 20h135v80q0 12 9.5 21.5t21.5 9.5h133q12 0 21.5 -9.5t9.5 -21.5v-80h96 q33 0 53 -20l115 -115q22 -22 22 -51v-176q0 -12 -8 -20.5t-20 -8.5h-136q-12 0 -20 8.5t-8 20.5v170h-375l-41 -39q-6 -6 -6 -19v-209q0 -10 6 -16l43 -41h375q31 0 53 -22l115 -115q22 -22 22 -53v-330q3 -26 -22 -53l-115 -115q-21 -21 -53 -21h-96v-77q0 -12 -9.5 -20.5 t-21.5 -8.5h-133q-12 0 -21.5 8.5t-9.5 20.5v77h-135q-32 0 -53 21l-115 115q-23 23 -23 53z" />
<glyph unicode="%" horiz-adv-x="1071" d="M74 29q4 10 12 22l692 1350q14 29 29 29h162q11 0 21.5 -9.5t6.5 -19.5l-688 -1372q-17 -29 -39 -29h-166q-12 0 -22.5 9.5t-7.5 19.5zM80 1221v180q0 12 8.5 20.5t20.5 8.5h165q12 0 21.5 -8.5t9.5 -20.5v-180q0 -10 -9.5 -17.5t-21.5 -7.5h-165q-11 0 -20 7.5t-9 17.5z M762 31v180q0 12 9.5 20.5t21.5 8.5h165q12 0 21.5 -8.5t9.5 -20.5v-180q0 -10 -9.5 -17.5t-21.5 -7.5h-165q-11 0 -21 7.5t-10 17.5z" />
<glyph unicode="&#x26;" horiz-adv-x="1185" d="M98 193v407q0 19 23 39l61 59l-61 62l-4 4l-4.5 4.5t-3.5 4t-3.5 4.5t-2.5 4.5t-2.5 6t-1.5 7t-1 9v9.5v422q0 34 23 57l115 115q11 11 24.5 17t21.5 6h7h514q30 0 53 -23l117 -115q20 -20 20 -53v-215q0 -11 -8 -20t-20 -9h-138q-10 0 -19 9t-9 20v211h-451 q-10 0 -14 -6l-33 -35q-8 -11 -8 -20v-318q0 -9 8 -14l29 -29h790q12 0 20.5 -8.5t8.5 -20.5v-133q0 -12 -8.5 -20t-20.5 -8h-127v-433q0 -33 -20 -53l-117 -117q-20 -20 -53 -20h-514q-33 0 -53 20l-115 117q-23 23 -23 56zM293 258q0 -27 8 -35l27 -28h471v428h-451 q-7 0 -14 -7l-33 -34q-8 -11 -8 -19v-305z" />
<glyph unicode="'" horiz-adv-x="335" d="M72 1128v279q0 20 24 20h140q12 0 20 -8t8 -20v-279q0 -20 -24 -20h-140q-12 0 -20 8t-8 20z" />
<glyph unicode="(" horiz-adv-x="591" d="M117 190v1051q0 31 22 53l115 115q21 21 53 21h223v-193h-159q-15 0 -21 -6l-35 -33q-6 -6 -6 -12v-950q0 -9 6 -15l29 -28h186v-193h-223q-30 0 -53 23l-115 114q-22 22 -22 53z" />
<glyph unicode=")" horiz-adv-x="591" d="M61 0v193h187l28 28q7 7 7 15v950q0 5 -7 12l-34 33q-6 6 -21 6h-160v193h224q32 0 53 -21l115 -115q22 -22 22 -53v-1051q0 -31 -22 -53l-115 -114q-23 -23 -53 -23h-224z" />
<glyph unicode="*" horiz-adv-x="753" d="M76 971q-9 13 2 20l178 113l-176 113q-12 6 -4 22l74 102q7 15 20 5l137 -109l-10 174q0 16 16 16h127q15 0 15 -14l-11 -176l138 109q14 11 22 -5l74 -102q8 -16 -4 -22l-176 -113l178 -113q11 -7 2 -20l-74 -105q-3 -4 -10 -5.5t-10 1.5l-140 109l11 -176q0 -5 -4.5 -9 t-10.5 -4h-127q-6 0 -11 4t-5 9l10 176l-139 -109q-11 -7 -18 4z" />
<glyph unicode="+" horiz-adv-x="978" d="M72 670v135q0 11 7 20t17 9h297v292q0 12 9 20.5t20 8.5h133q12 0 20.5 -8.5t8.5 -20.5v-292h293q12 0 21 -8.5t9 -20.5v-135q0 -12 -9 -20.5t-21 -8.5h-293v-297q0 -10 -9 -18.5t-20 -8.5h-133q-11 0 -20 8.5t-9 18.5v297h-297q-10 0 -17 9t-7 20z" />
<glyph unicode="," d="M102 -186v376q0 12 8.5 20.5t20.5 8.5h133q12 0 20.5 -8.5t8.5 -20.5v-268q0 -12 -27 -31l-127 -96q-15 -9 -26 -1t-11 20z" />
<glyph unicode="-" horiz-adv-x="911" d="M72 670v135q0 11 7 20t17 9h713q12 0 21.5 -8.5t9.5 -20.5v-135q0 -12 -9.5 -20.5t-21.5 -8.5h-713q-10 0 -17 9t-7 20z" />
<glyph unicode="." d="M102 25v165q0 12 8.5 20.5t20.5 8.5h133q12 0 20.5 -8.5t8.5 -20.5v-165q0 -10 -9 -17.5t-20 -7.5h-133q-11 0 -20 7.5t-9 17.5z" />
<glyph unicode="/" horiz-adv-x="1009" d="M47 29l705 1380q10 21 30 21h156q18 0 26 -9t3 -20l-697 -1381q-10 -20 -30 -20h-164q-18 0 -26 9t-3 20z" />
<glyph unicode="0" horiz-adv-x="1118" d="M104 190v1049q0 35 21 53l117 115q11 11 24.5 17t21.5 6h7h528q29 2 54 -23l116 -115q11 -11 15.5 -22t5 -16t0.5 -23v-1041q0 -30 -23 -53l-114 -117q-20 -20 -54 -20h-528q-28 -5 -53 20l-117 117q-21 21 -21 53zM299 238q0 -11 6 -15l29 -28h450l29 28q6 4 6 15v931 q0 17 -6 25l-29 31q-10 10 -18 10h-410q-12 0 -20 -8l-31 -33q-6 -6 -6 -14v-942z" />
<glyph unicode="1" horiz-adv-x="477" d="M33.5 1246q-6.5 11 3.5 28l96 129q2 3 5.5 7.5t5 6.5t4 5t5 4.5t5.5 2.5t6 1h168q11 0 20.5 -8t9.5 -21v-1372q0 -12 -9 -20.5t-21 -8.5h-135q-12 0 -20.5 8.5t-8.5 20.5v1206h-115q-13 0 -19.5 11z" />
<glyph unicode="2" horiz-adv-x="1126" d="M113 29v604q-5 28 22 53l115 115q22 22 53 22h510l29 29q6 6 6 14v312q0 8 -6 14l-33 35q-6 6 -14 6h-488v-209q0 -11 -8 -20t-20 -9h-138q-12 0 -20 9t-8 20v215q0 31 22 53l115 115q23 23 53 23h526q21 0 31 -4t25 -19l116 -115q11 -11 16.5 -24.5t4.5 -21.5v-7v-420 q0 -32 -21 -53l-116 -117q-20 -20 -54 -20h-473q-6 0 -12 -6l-33 -33q-6 -6 -6 -17v-378h686q12 0 20.5 -9t8.5 -20v-137q0 -12 -8.5 -20.5t-20.5 -8.5h-852q-12 0 -20 8.5t-8 20.5z" />
<glyph unicode="3" horiz-adv-x="1073" d="M80 184v219q0 12 8.5 20.5t20.5 8.5h137q11 0 19.5 -8.5t8.5 -20.5v-208h471l27 28q8 12 8 19v317q0 11 -8 19l-33 34q-4 6 -14 6h-322v195h340l29 29q8 8 8 18v320q0 6 -8 14l-33 35q-4 6 -14 6h-451v-211q0 -11 -9 -20t-19 -9h-137q-12 0 -20.5 9t-8.5 20v215 q0 33 20 53l117 115q14 14 23.5 18.5t29.5 4.5h514q31 0 54 -23l114 -115q23 -23 23 -57v-420q0 -32 -23 -55l-61 -62l61 -59q23 -20 23 -39v-407q0 -33 -23 -56l-114 -117q-20 -20 -50 -20h-524q-27 0 -47 20l-117 117q-20 20 -20 47z" />
<glyph unicode="4" horiz-adv-x="1144" d="M104 616v785q0 11 8.5 20t20.5 9h137q10 0 19.5 -9t9.5 -20v-737q0 -9 6 -15l29 -28h424v780q0 12 9 20.5t21 8.5h136q12 0 20 -8.5t8 -20.5v-780h107q12 0 20 -8.5t8 -20.5v-137q0 -11 -8 -20t-20 -9h-107v-397q0 -12 -8 -20.5t-20 -8.5h-136q-12 0 -21 8.5t-9 20.5v397 h-463q-30 0 -53 23l-117 114q-21 21 -21 53z" />
<glyph unicode="5" horiz-adv-x="1126" d="M113 190v213q0 12 8 20.5t20 8.5h138q12 0 20 -8.5t8 -20.5v-208h467q8 0 14 6l33 32q6 6 6 17v364q0 9 -6 17l-28 28h-490q-32 0 -53 21l-115 117q-22 22 -22 53v551q0 11 8 20t20 9h852q12 0 20.5 -9t8.5 -20v-135q0 -12 -8.5 -20.5t-20.5 -8.5h-686v-328q0 -10 6 -16 l33 -33q6 -6 12 -6h473q31 0 54 -23l116 -114q21 -21 21 -53v-474q0 -32 -21 -53l-116 -117q-20 -20 -49 -20h-533q-33 0 -53 20l-115 117q-22 22 -22 53z" />
<glyph unicode="6" horiz-adv-x="1093" d="M104 190v1053q0 28 21 49l117 115q16 16 25 19.5t28 3.5h514q12 0 17.5 -1t14.5 -6t21 -16l115 -115q22 -22 22 -57v-211q0 -11 -9 -20t-21 -9h-115q-12 0 -20.5 9t-8.5 20v211h-473q-8 0 -14 -6l-33 -35q-6 -8 -6 -14v-273q0 -10 6 -14l29 -29h475q13 0 18 -0.5t14 -5.5 t21 -16l117 -115q20 -20 20 -53v-486q0 -29 -22 -51l-115 -117q-20 -20 -49 -20h-4h-530q-17 0 -37 20l-117 117q-21 21 -21 53zM299 238q0 -11 6 -15l27 -26h438l27 28q8 8 8 15v374q0 9 -8 17l-39 39h-406q-10 0 -14 -6l-33 -35q-6 -6 -6 -15v-376z" />
<glyph unicode="7" horiz-adv-x="993" d="M53 1264v137q0 12 8.5 20.5t20.5 8.5h821q12 0 20.5 -8.5t8.5 -20.5v-217q0 -13 -3 -25.5t-9.5 -30t-8.5 -22.5l-395 -1106h-221q0 8 6 23l434 1212h-653q-12 0 -20.5 8.5t-8.5 20.5z" />
<glyph unicode="8" horiz-adv-x="1093" d="M100 188v392q0 14 21 38l61 80l-61 82q-21 26 -21 47v414q0 30 21 51l117 115q23 23 53 23h514q30 0 53 -23l115 -115q22 -22 22 -51v-407q0 -23 -22 -54l-62 -82l62 -80q22 -26 22 -38v-392q0 -29 -22 -51l-115 -117q-20 -20 -49 -20h-524q-27 0 -47 20l-117 117 q-21 21 -21 51zM274 238q0 -10 7 -15l28 -28h457l31 32q4 4 4 15v325q0 11 -6 17l-35 37q-6 6 -15 6h-417q-11 0 -15 -6l-32 -35q-7 -9 -7 -19v-329zM274 848q0 -9 7 -14l28 -29h455l29 29q8 5 8 14v330q0 8 -8 16l-33 35q-4 6 -15 6h-417q-9 0 -15 -6l-32 -35 q-7 -10 -7 -14v-332z" />
<glyph unicode="9" horiz-adv-x="1093" d="M96 184v219q0 12 8.5 20.5t20.5 8.5h137q11 0 20 -8.5t9 -20.5v-206h450q9 0 15 6l32 33q9 9 9 16v268q0 8 -9 17l-28 28h-479q-27 0 -48 21l-116 116q-21 21 -21 54v485q0 30 21 51l116 115q23 23 54 23l528 -3q19 0 39 -20l115 -115q22 -22 22 -57l-2 -1045 q0 -33 -20 -53l-115 -117q-20 -20 -49 -20h-524q-28 0 -48 20l-116 117q-21 21 -21 47zM291 813q0 -8 6 -14l33 -33q4 -4 8 -4h403q9 0 15 6l32 33q4 4 6 8t2 6l1 2v375q0 5 -9 14l-24 27h-438l-29 -29q-6 -6 -6 -14v-377z" />
<glyph unicode=":" d="M102 25v165q0 12 8.5 20.5t20.5 8.5h133q12 0 20.5 -8.5t8.5 -20.5v-165q0 -10 -9 -17.5t-20 -7.5h-133q-11 0 -20 7.5t-9 17.5zM102 598v166q0 12 8.5 20.5t20.5 8.5h133q12 0 20.5 -8.5t8.5 -20.5v-166q0 -10 -9 -17.5t-20 -7.5h-133q-11 0 -20 7.5t-9 17.5z" />
<glyph unicode=";" d="M102 -188v378q0 12 8.5 20.5t20.5 8.5h133q12 0 20.5 -8.5t8.5 -20.5v-262q0 -17 -27 -37l-127 -96q-15 -9 -26 -2t-11 19zM102 598v166q0 12 8.5 20.5t20.5 8.5h133q12 0 20.5 -8.5t8.5 -20.5v-166q0 -10 -9 -17.5t-20 -7.5h-133q-11 0 -20 7.5t-9 17.5z" />
<glyph unicode="&#x3c;" horiz-adv-x="954" d="M82 647v178q0 25 24 35l728 357q14 7 26 -2t12 -23v-164q0 -25 -28 -37l-547 -254l547 -256q28 -12 28 -37v-161q0 -13 -9 -23t-19 -6l-738 360q-2 1 -6.5 3t-6.5 4t-5 5.5t-4.5 8.5t-1.5 12z" />
<glyph unicode="=" horiz-adv-x="1075" d="M92 508v133q0 11 7.5 21t17.5 10h835q12 0 21.5 -9.5t9.5 -21.5v-133q0 -12 -9.5 -21.5t-21.5 -9.5h-835q-10 0 -17.5 9.5t-7.5 21.5zM92 831v134q0 11 7.5 20.5t17.5 9.5h835q12 0 21.5 -9t9.5 -21v-134q0 -12 -9.5 -21t-21.5 -9h-835q-10 0 -17.5 9t-7.5 21z" />
<glyph unicode="&#x3e;" horiz-adv-x="954" d="M82 283v161q0 11 9 21.5t20 15.5l546 256l-546 254q-11 5 -20 15.5t-9 21.5v164q0 14 12.5 23t26.5 2l727 -357q24 -10 24 -35v-178q0 -9 -3 -15t-4.5 -8t-8.5 -6l-8 -4l-737 -360q-11 -5 -20 3t-9 26z" />
<glyph unicode="?" horiz-adv-x="1064" d="M74 1010v235q0 29 20 49l117 115q21 21 53 21h529q32 0 53 -21l117 -115q20 -20 20 -37v-628q0 -12 -8.5 -21.5t-20.5 -9.5h-372v-203q0 -12 -8.5 -20t-20.5 -8h-137q-12 0 -20.5 8t-8.5 20v369q0 12 8.5 20.5t20.5 8.5h372v401q0 8 -6 14l-28 29h-451l-29 -29 q-6 -6 -6 -14v-184q0 -12 -8.5 -20.5t-19.5 -8.5h-138q-12 0 -20 8.5t-8 20.5zM387 25v182q0 12 8.5 20.5t20.5 8.5h137q12 0 20.5 -8.5t8.5 -20.5v-182q0 -10 -9 -17.5t-20 -7.5h-137q-11 0 -20 7.5t-9 17.5z" />
<glyph unicode="@" horiz-adv-x="1624" d="M135 -72v1127q0 20 15 35l77 77q15 15 37 15h1096q22 0 37 -15l78 -77q14 -16 14 -35v-920h-901q-20 0 -35 15l-78 77q-14 14 -14 37v465q0 23 14 37l78 78q14 14 35 14h438q23 0 37 -14l78 -78q14 -14 14 -37v-401h139v624q0 7 -4 11l-22 22q-4 4 -11 4h-892q-5 0 -9 -4 l-22 -22q-6 -6 -6 -11v-917q0 -6 6 -12l18 -21h815v-203h-903q-22 0 -37 15l-77 77q-15 15 -15 37zM653 358q0 -6 4 -10l21 -18h260l20 18q5 5 5 10v267q0 7 -5 12l-24 25q-4 4 -8 4h-236q-6 0 -10 -4l-23 -25q-4 -4 -4 -10v-269z" />
<glyph unicode="A" horiz-adv-x="1153" d="M23 29l405 1370q9 28 29 28h241q20 0 29 -28l403 -1370q1 -2 1 -5q1 -8 -7 -14q-10 -10 -22 -10h-125q-10 0 -22 9t-15 20l-98 331h-529l-98 -327q-5 -14 -16 -23.5t-23 -9.5h-123q-13 0 -23 10q-8 7 -8 15q0 2 1 4zM369 553h417l-208 704z" />
<glyph unicode="B" horiz-adv-x="1083" d="M115 29v1372q0 12 8 20.5t20 8.5h650q32 0 53 -21l115 -115q22 -24 22 -53v-375q0 -31 -22 -53l-80 -80l80 -82q22 -22 22 -53v-410q0 -29 -22 -51l-115 -114q-23 -23 -53 -23h-650q-12 0 -20 8.5t-8 20.5zM305 190h418l8 7l51 51q11 11 11 22v262q0 18 -11 29l-51 51 l-14 9h-412v-431zM305 811h406q10 0 20 10l51 51q11 11 11 21v264q0 10 -11 25l-51 53q-4 4 -12 4h-414v-428z" />
<glyph unicode="C" horiz-adv-x="1091" d="M104 181v7v1053q-2 26 23 51l115 117q21 21 51 21h530q30 0 51 -21l117 -115q21 -21 21 -53v-219q0 -12 -8.5 -20.5t-20.5 -8.5h-133q-12 0 -20.5 8.5t-8.5 20.5v141q0 11 -8 19l-49 51q-4 4 -8 6h-394q-4 0 -8 -4l-51 -53q-3 -3 -8 -13v-905l8 -14l51 -51l15 -9h379 l14 9l51 51l8 14v139q0 12 8.5 20.5t20.5 8.5h133q12 0 20.5 -8.5t8.5 -20.5v-217q0 -28 -23 -49l-115 -114q-9 -9 -13.5 -12.5t-14 -7t-23.5 -3.5h-526q-32 0 -55 23l-115 114q-11 11 -17 24t-6 20z" />
<glyph unicode="D" horiz-adv-x="1087" d="M115 29v1372q0 12 8 20.5t20 8.5h650q32 0 53 -21l115 -115q22 -22 22 -53v-1053q0 -29 -22 -51l-115 -114q-9 -9 -14.5 -13t-15 -7t-23.5 -3h-650q-12 0 -20 8.5t-8 20.5zM305 190h412l14 9l51 51q11 11 11 22v889q0 6 -11 21l-51 53q-4 4 -10 4h-416v-1049z" />
<glyph unicode="E" horiz-adv-x="972" d="M115 29v1372q0 12 8 20.5t20 8.5h744q11 0 19.5 -8.5t8.5 -20.5v-133q0 -12 -8.5 -20.5t-19.5 -8.5h-582v-428h459q12 0 20.5 -8.5t8.5 -20.5v-133q0 -12 -8.5 -20t-20.5 -8h-459v-431h582q11 0 19.5 -8t8.5 -20v-133q0 -12 -8.5 -20.5t-19.5 -8.5h-744q-12 0 -20 8.5 t-8 20.5z" />
<glyph unicode="F" horiz-adv-x="972" d="M115 29v1372q0 12 8 20.5t20 8.5h744q11 0 19.5 -8.5t8.5 -20.5v-133q0 -29 -16 -29h-594v-428h490q11 0 19.5 -8.5t8.5 -20.5v-133q0 -12 -8.5 -20t-19.5 -8h-490v-592q0 -12 -8.5 -20.5t-20.5 -8.5h-133q-12 0 -20 8.5t-8 20.5z" />
<glyph unicode="G" horiz-adv-x="1116" d="M104 188v1053q0 28 23 51l115 117q21 21 51 21h530q30 0 51 -21l117 -115q21 -21 21 -53v-219q0 -12 -8.5 -20.5t-20.5 -8.5h-133q-12 0 -20.5 8.5t-8.5 20.5v162l-55 55h-397q-9 0 -13 -4l-51 -53q-10 -10 -10 -21v-889q0 -12 10 -22l51 -51q9 -9 21 -9h377q7 0 16 9 l51 51v328h-243q-12 0 -20.5 8.5t-8.5 19.5v133q0 12 8.5 20.5t20.5 8.5h405q12 0 20.5 -8.5t8.5 -20.5v-565q0 -17 -23 -37l-115 -114q-23 -23 -51 -23h-528q-30 0 -53 23l-115 114q-15 15 -19 23.5t-4 27.5z" />
<glyph unicode="H" horiz-adv-x="1136" d="M115 29v1372q0 12 8 20.5t20 8.5h133q12 0 20.5 -8.5t8.5 -20.5v-631h526v631q0 12 8.5 20.5t20.5 8.5h133q12 0 20.5 -8.5t8.5 -20.5v-1372q0 -12 -8.5 -20.5t-20.5 -8.5h-133q-12 0 -20.5 8.5t-8.5 20.5v551h-526v-551q0 -12 -8.5 -20.5t-20.5 -8.5h-133q-12 0 -20 8.5 t-8 20.5z" />
<glyph unicode="I" horiz-adv-x="419" d="M115 29v1370q0 12 8 21.5t20 9.5h133q12 0 20.5 -9.5t8.5 -21.5v-1370q0 -12 -8.5 -20.5t-20.5 -8.5h-133q-12 0 -20 8.5t-8 20.5z" />
<glyph unicode="J" horiz-adv-x="1034" d="M74 174v322q0 12 8 20t20 8h134q12 0 20 -8t8 -20v-232l8 -14l52 -51l14 -9h332q5 0 14 9l51 51v1155q0 10 9 17.5t20 7.5h133q11 0 20 -7.5t9 -17.5v-1217q0 -30 -21 -51l-114 -114q-23 -23 -54 -23h-475q-28 0 -51 23l-115 114q-22 19 -22 37z" />
<glyph unicode="K" horiz-adv-x="1015" d="M115 29v1372q0 12 8 20.5t20 8.5h133q12 0 20.5 -8.5t8.5 -20.5v-578l447 586q15 21 36 21h170q12 0 19 -10t0 -19l-373 -479l397 -893q1 -3 1 -7q0 -6 -5 -12q-8 -10 -20 -10h-150q-24 0 -36 29l-320 716l-166 -210v-506q0 -12 -8.5 -20.5t-20.5 -8.5h-133 q-12 0 -20 8.5t-8 20.5z" />
<glyph unicode="L" horiz-adv-x="980" d="M115 29v1376q0 10 8.5 17.5t19.5 7.5h133q11 0 20 -7.5t9 -17.5v-1215h602q12 0 20.5 -8t8.5 -20v-133q0 -12 -8.5 -20.5t-20.5 -8.5h-764q-12 0 -20 8.5t-8 20.5z" />
<glyph unicode="M" horiz-adv-x="1335" d="M82 29l55 1370q0 11 8 21t19 10h145q21 0 31 -29l268 -899l68 -209l49 209l270 899q10 29 31 29h145q10 0 18.5 -10t8.5 -21l55 -1370q0 -12 -8.5 -20.5t-19.5 -8.5h-133q-12 0 -21.5 8.5t-9.5 20.5l-12 880l-271 -876q-3 -11 -16 -22t-23 -11h-108q-12 0 -23 9.5 t-16 21.5l-305 913l-15 -915q0 -12 -8 -20.5t-20 -8.5h-133q-12 0 -20.5 8.5t-8.5 20.5z" />
<glyph unicode="N" horiz-adv-x="1114" d="M115 29v1372q0 12 8 20.5t20 8.5h195q18 0 31 -29l438 -981v981q0 12 9 20.5t20 8.5h133q12 0 21 -8.5t9 -20.5v-1372q0 -12 -9 -20.5t-21 -8.5h-150q-19 0 -33 27l-481 1052v-1050q0 -12 -8.5 -20.5t-20.5 -8.5h-133q-12 0 -20 8.5t-8 20.5z" />
<glyph unicode="O" horiz-adv-x="1116" d="M104 190v1051q0 32 21 53l117 115q21 21 49 21h532q30 0 51 -21l117 -115q21 -21 21 -57v-1038q0 -39 -23 -62l-115 -114q-23 -23 -51 -23h-530q-28 0 -51 23l-115 114q-23 23 -23 53zM295 258q0 -6 4 -10l49 -49q9 -9 17 -9h383q11 0 20 9l49 49q4 4 4 10v924l-51 51 q-6 6 -14 6h-396q-8 0 -14 -6l-51 -51v-924z" />
<glyph unicode="P" horiz-adv-x="1071" d="M115 29v1372q0 12 8 20.5t20 8.5h650q32 0 53 -21l115 -115q22 -22 22 -55v-524q0 -29 -22 -51l-115 -115q-23 -23 -53 -23h-488v-497q0 -12 -8.5 -20.5t-20.5 -8.5h-133q-12 0 -20 8.5t-8 20.5zM305 717h414q8 4 12 8l53 51l9 15v372q0 10 -9 19l-53 53q-4 4 -14 4h-412 v-522z" />
<glyph unicode="Q" horiz-adv-x="1101" d="M100 190v1051q0 32 21 53l117 115q21 21 51 21h524q30 0 51 -21l117 -115q20 -20 20 -57v-1038q0 -40 -22 -62l-61 -61l110 -176q2 -4 2 -8q0 -6 -4 -12q-9 -9 -27 -9h-127q-7 0 -13 4t-9 7.5t-14 17.5l-76 100h-471q-28 0 -51 23l-115 114q-23 23 -23 53zM291 258 q0 -6 4 -10l49 -49q9 -9 16 -9h377q12 0 21 9l49 49q4 4 4 10v924l-51 51q-6 6 -15 6h-389q-8 0 -14 -6l-51 -51v-924z" />
<glyph unicode="R" horiz-adv-x="1079" d="M115 29v1372q0 12 8 20.5t20 8.5h650q27 0 41 -10q6 -5 12 -11l115 -115q22 -22 22 -53v-520q0 -35 -22 -57l-123 -123l206 -512q2 -5 2 -9q0 -6 -4 -11q-6 -9 -22 -9h-141q-10 0 -21 9t-16 20l-201 497h-336v-497q0 -12 -8.5 -20.5t-20.5 -8.5h-133q-12 0 -20 8.5 t-8 20.5zM305 717h414q6 0 12 6l53 51q9 9 9 17v372q0 10 -9 19l-49 49q-8 8 -18 8h-412v-522z" />
<glyph unicode="S" horiz-adv-x="1107" d="M100 188v203q0 12 8.5 20.5t20.5 8.5h133q12 0 20.5 -8.5t8.5 -20.5v-121q0 -10 10 -20l51 -51q9 -9 19 -9h374q8 0 17 9l51 49q4 4 4 10v301l-61 59h-471q-24 0 -47 23l-115 115q-23 23 -23 51v434q0 28 23 51l115 117q18 21 51 21h530q30 0 51 -21l117 -115 q21 -21 21 -53v-215q0 -12 -8.5 -20.5t-20.5 -8.5h-133q-12 0 -20.5 8.5t-8.5 20.5v137q0 11 -8 19l-51 53q-4 4 -8 4h-394q-6 0 -10 -4l-49 -51q-6 -6 -6 -17v-284q0 -9 8 -17l47 -47q10 -10 23 -10h452q26 0 49 -23l117 -114q21 -21 21 -54v-428q0 -30 -23 -53l-115 -114 q-23 -23 -51 -23h-528q-30 0 -53 23l-115 114q-23 23 -23 51z" />
<glyph unicode="T" horiz-adv-x="966" d="M45 1266v133q0 12 8.5 21.5t20.5 9.5h819q12 0 20.5 -9.5t8.5 -21.5v-133q0 -11 -8.5 -20t-20.5 -9h-313v-1212q0 -10 -8 -17.5t-17 -7.5h-143q-9 0 -17 7.5t-8 17.5v1212h-313q-12 0 -20.5 9t-8.5 20z" />
<glyph unicode="U" horiz-adv-x="1124" d="M109 190v1211q0 11 8 20t20 9h133q12 0 20.5 -9t8.5 -20v-1137l8 -14l53 -51q9 -9 19 -9h366q16 0 25 9l51 51q4 4 4 8v1143q0 11 8.5 20t20.5 9h133q12 0 20.5 -9t8.5 -20v-1213q0 -28 -23 -51l-114 -114q-23 -23 -52 -23h-528q-30 0 -53 23l-115 114q-22 22 -22 53z " />
<glyph unicode="V" horiz-adv-x="991" d="M23 1391q-1 3 -1 7q0 8 6 18q8 14 19 14h146q24 0 30 -29l185 -735l88 -383l88 383l184 735q6 29 31 29h145q12 0 20 -14q6 -10 6 -18q0 -3 -1 -7l-355 -1358q-3 -14 -14.5 -23.5t-24.5 -9.5h-159q-12 0 -24 10t-15 23z" />
<glyph unicode="W" horiz-adv-x="1310" d="M70 1399q0 12 8 21.5t20 9.5h133q12 0 20.5 -9.5t8.5 -21.5l72 -1094l4 -29l217 685q11 28 33 28h139q21 0 31 -28l217 -685l4 29l72 1094q0 12 9 21.5t21 9.5h133q11 0 20.5 -10.5t8.5 -24.5l-111 -1366q0 -11 -7 -20t-17 -9h-203q-20 0 -29 29l-161 460l-58 191 l-59 -191l-160 -460q-9 -29 -30 -29h-201q-9 0 -18 9.5t-9 19.5z" />
<glyph unicode="X" horiz-adv-x="980" d="M31 29l354 710l-338 652q-7 14 2 26.5t23 12.5h153q23 0 39 -31l225 -451l226 451q15 31 39 31h153q14 0 23 -12.5t2 -26.5l-338 -652l354 -710q2 -4 2 -7q0 -6 -6 -12q-10 -10 -24 -10h-146q-11 0 -17.5 7t-13.5 22l-254 510l-253 -510q-14 -29 -31 -29h-146 q-13 0 -23 10q-7 6 -7 12q0 3 2 7z" />
<glyph unicode="Y" horiz-adv-x="1087" d="M12 1419q8 11 31 11h154q17 0 34 -27l314 -574l313 574q17 27 35 27h154q23 0 31 -11q3 -5 3 -10q0 -7 -6 -16l-436 -787v-577q0 -12 -7 -20.5t-16 -8.5h-143q-10 0 -17 8.5t-7 20.5v579l-435 785q-6 8 -6 15q0 6 4 11z" />
<glyph unicode="Z" horiz-adv-x="1019" d="M72 29v137q0 9 6 18l631 1053h-609q-12 0 -20 9.5t-8 21.5v131q0 12 8 21.5t20 9.5h820q12 0 20 -9.5t8 -21.5v-125q0 -14 -10 -29l-633 -1055h615q12 0 20 -8t8 -20v-133q0 -12 -8 -20.5t-20 -8.5h-820q-12 0 -20 8.5t-8 20.5z" />
<glyph unicode="\" horiz-adv-x="1009" d="M43 1401q-4 10 2.5 19.5t17.5 9.5h170q15 0 29 -29l699 -1360q9 -13 2 -27t-27 -14h-166q-22 0 -39 29z" />
<glyph unicode="^" horiz-adv-x="1165" d="M73 647q-6 10 1 25l358 733q12 25 33 25h231q24 0 35 -25l359 -733q7 -15 0.5 -25t-19.5 -10h-182q-11 0 -21.5 9t-15.5 20l-270 581l-271 -581q-5 -11 -15.5 -20t-21.5 -9h-182q-13 0 -19 10z" />
<glyph unicode="a" horiz-adv-x="1153" d="M23 29l405 1370q9 28 29 28h241q20 0 29 -28l403 -1370q1 -2 1 -5q1 -8 -7 -14q-10 -10 -22 -10h-125q-10 0 -22 9t-15 20l-98 331h-529l-98 -327q-5 -14 -16 -23.5t-23 -9.5h-123q-13 0 -23 10q-8 7 -8 15q0 2 1 4zM369 553h417l-208 704z" />
<glyph unicode="b" horiz-adv-x="1083" d="M115 29v1372q0 12 8 20.5t20 8.5h650q32 0 53 -21l115 -115q22 -24 22 -53v-375q0 -31 -22 -53l-80 -80l80 -82q22 -22 22 -53v-410q0 -29 -22 -51l-115 -114q-23 -23 -53 -23h-650q-12 0 -20 8.5t-8 20.5zM305 190h418l8 7l51 51q11 11 11 22v262q0 18 -11 29l-51 51 l-14 9h-412v-431zM305 811h406q10 0 20 10l51 51q11 11 11 21v264q0 10 -11 25l-51 53q-4 4 -12 4h-414v-428z" />
<glyph unicode="c" horiz-adv-x="1091" d="M104 181v7v1053q-2 26 23 51l115 117q21 21 51 21h530q30 0 51 -21l117 -115q21 -21 21 -53v-219q0 -12 -8.5 -20.5t-20.5 -8.5h-133q-12 0 -20.5 8.5t-8.5 20.5v141q0 11 -8 19l-49 51q-4 4 -8 6h-394q-4 0 -8 -4l-51 -53q-3 -3 -8 -13v-905l8 -14l51 -51l15 -9h379 l14 9l51 51l8 14v139q0 12 8.5 20.5t20.5 8.5h133q12 0 20.5 -8.5t8.5 -20.5v-217q0 -28 -23 -49l-115 -114q-9 -9 -13.5 -12.5t-14 -7t-23.5 -3.5h-526q-32 0 -55 23l-115 114q-11 11 -17 24t-6 20z" />
<glyph unicode="d" horiz-adv-x="1087" d="M115 29v1372q0 12 8 20.5t20 8.5h650q32 0 53 -21l115 -115q22 -22 22 -53v-1053q0 -29 -22 -51l-115 -114q-9 -9 -14.5 -13t-15 -7t-23.5 -3h-650q-12 0 -20 8.5t-8 20.5zM305 190h412l14 9l51 51q11 11 11 22v889q0 6 -11 21l-51 53q-4 4 -10 4h-416v-1049z" />
<glyph unicode="e" horiz-adv-x="972" d="M115 29v1372q0 12 8 20.5t20 8.5h744q11 0 19.5 -8.5t8.5 -20.5v-133q0 -12 -8.5 -20.5t-19.5 -8.5h-582v-428h459q12 0 20.5 -8.5t8.5 -20.5v-133q0 -12 -8.5 -20t-20.5 -8h-459v-431h582q11 0 19.5 -8t8.5 -20v-133q0 -12 -8.5 -20.5t-19.5 -8.5h-744q-12 0 -20 8.5 t-8 20.5z" />
<glyph unicode="f" horiz-adv-x="972" d="M115 29v1372q0 12 8 20.5t20 8.5h744q11 0 19.5 -8.5t8.5 -20.5v-133q0 -29 -16 -29h-594v-428h490q11 0 19.5 -8.5t8.5 -20.5v-133q0 -12 -8.5 -20t-19.5 -8h-490v-592q0 -12 -8.5 -20.5t-20.5 -8.5h-133q-12 0 -20 8.5t-8 20.5z" />
<glyph unicode="g" horiz-adv-x="1116" d="M104 188v1053q0 28 23 51l115 117q21 21 51 21h530q30 0 51 -21l117 -115q21 -21 21 -53v-219q0 -12 -8.5 -20.5t-20.5 -8.5h-133q-12 0 -20.5 8.5t-8.5 20.5v162l-55 55h-397q-9 0 -13 -4l-51 -53q-10 -10 -10 -21v-889q0 -12 10 -22l51 -51q9 -9 21 -9h377q7 0 16 9 l51 51v328h-243q-12 0 -20.5 8.5t-8.5 19.5v133q0 12 8.5 20.5t20.5 8.5h405q12 0 20.5 -8.5t8.5 -20.5v-565q0 -17 -23 -37l-115 -114q-23 -23 -51 -23h-528q-30 0 -53 23l-115 114q-15 15 -19 23.5t-4 27.5z" />
<glyph unicode="h" horiz-adv-x="1136" d="M115 29v1372q0 12 8 20.5t20 8.5h133q12 0 20.5 -8.5t8.5 -20.5v-631h526v631q0 12 8.5 20.5t20.5 8.5h133q12 0 20.5 -8.5t8.5 -20.5v-1372q0 -12 -8.5 -20.5t-20.5 -8.5h-133q-12 0 -20.5 8.5t-8.5 20.5v551h-526v-551q0 -12 -8.5 -20.5t-20.5 -8.5h-133q-12 0 -20 8.5 t-8 20.5z" />
<glyph unicode="i" horiz-adv-x="419" d="M115 29v1370q0 12 8 21.5t20 9.5h133q12 0 20.5 -9.5t8.5 -21.5v-1370q0 -12 -8.5 -20.5t-20.5 -8.5h-133q-12 0 -20 8.5t-8 20.5z" />
<glyph unicode="j" horiz-adv-x="1038" d="M78 174v322q0 12 8 20t20 8h134q12 0 20 -8t8 -20v-232l8 -14l52 -51l14 -9h332q5 0 14 9l51 51v1155q0 10 9 17.5t20 7.5h133q11 0 20 -7.5t9 -17.5v-1217q0 -30 -21 -51l-114 -114q-23 -23 -54 -23h-475q-28 0 -51 23l-115 114q-22 19 -22 37z" />
<glyph unicode="k" horiz-adv-x="1015" d="M115 29v1372q0 12 8 20.5t20 8.5h133q12 0 20.5 -8.5t8.5 -20.5v-578l447 586q15 21 36 21h170q12 0 19 -10t0 -19l-373 -479l397 -893q1 -3 1 -7q0 -6 -5 -12q-8 -10 -20 -10h-150q-24 0 -36 29l-320 716l-166 -210v-506q0 -12 -8.5 -20.5t-20.5 -8.5h-133 q-12 0 -20 8.5t-8 20.5z" />
<glyph unicode="l" horiz-adv-x="980" d="M115 29v1376q0 10 8.5 17.5t19.5 7.5h133q11 0 20 -7.5t9 -17.5v-1215h602q12 0 20.5 -8t8.5 -20v-133q0 -12 -8.5 -20.5t-20.5 -8.5h-764q-12 0 -20 8.5t-8 20.5z" />
<glyph unicode="m" horiz-adv-x="1335" d="M82 29l55 1370q0 11 8 21t19 10h145q21 0 31 -29l268 -899l68 -209l49 209l270 899q10 29 31 29h145q10 0 18.5 -10t8.5 -21l55 -1370q0 -12 -8.5 -20.5t-19.5 -8.5h-133q-12 0 -21.5 8.5t-9.5 20.5l-12 880l-271 -876q-3 -11 -16 -22t-23 -11h-108q-12 0 -23 9.5 t-16 21.5l-305 913l-15 -915q0 -12 -8 -20.5t-20 -8.5h-133q-12 0 -20.5 8.5t-8.5 20.5z" />
<glyph unicode="n" horiz-adv-x="1114" d="M115 29v1372q0 12 8 20.5t20 8.5h195q18 0 31 -29l438 -981v981q0 12 9 20.5t20 8.5h133q12 0 21 -8.5t9 -20.5v-1372q0 -12 -9 -20.5t-21 -8.5h-150q-19 0 -33 27l-481 1052v-1050q0 -12 -8.5 -20.5t-20.5 -8.5h-133q-12 0 -20 8.5t-8 20.5z" />
<glyph unicode="o" horiz-adv-x="1116" d="M104 190v1051q0 32 21 53l117 115q21 21 49 21h532q30 0 51 -21l117 -115q21 -21 21 -57v-1038q0 -39 -23 -62l-115 -114q-23 -23 -51 -23h-530q-28 0 -51 23l-115 114q-23 23 -23 53zM295 258q0 -6 4 -10l49 -49q9 -9 17 -9h383q11 0 20 9l49 49q4 4 4 10v924l-51 51 q-6 6 -14 6h-396q-8 0 -14 -6l-51 -51v-924z" />
<glyph unicode="p" horiz-adv-x="1071" d="M115 29v1372q0 12 8 20.5t20 8.5h650q32 0 53 -21l115 -115q22 -22 22 -55v-524q0 -29 -22 -51l-115 -115q-23 -23 -53 -23h-488v-497q0 -12 -8.5 -20.5t-20.5 -8.5h-133q-12 0 -20 8.5t-8 20.5zM305 717h414q8 4 12 8l53 51l9 15v372q0 10 -9 19l-53 53q-4 4 -14 4h-412 v-522z" />
<glyph unicode="q" horiz-adv-x="1101" d="M100 190v1051q0 32 21 53l117 115q21 21 51 21h524q30 0 51 -21l117 -115q20 -20 20 -57v-1038q0 -40 -22 -62l-61 -61l110 -176q2 -4 2 -8q0 -6 -4 -12q-9 -9 -27 -9h-127q-7 0 -13 4t-9 7.5t-14 17.5l-76 100h-471q-28 0 -51 23l-115 114q-23 23 -23 53zM291 258 q0 -6 4 -10l49 -49q9 -9 16 -9h377q12 0 21 9l49 49q4 4 4 10v924l-51 51q-6 6 -15 6h-389q-8 0 -14 -6l-51 -51v-924z" />
<glyph unicode="r" horiz-adv-x="1079" d="M115 29v1372q0 12 8 20.5t20 8.5h650q27 0 41 -10q6 -5 12 -11l115 -115q22 -22 22 -53v-520q0 -35 -22 -57l-123 -123l206 -512q2 -5 2 -9q0 -6 -4 -11q-6 -9 -22 -9h-141q-10 0 -21 9t-16 20l-201 497h-336v-497q0 -12 -8.5 -20.5t-20.5 -8.5h-133q-12 0 -20 8.5 t-8 20.5zM305 717h414q6 0 12 6l53 51q9 9 9 17v372q0 10 -9 19l-49 49q-8 8 -18 8h-412v-522z" />
<glyph unicode="s" horiz-adv-x="1107" d="M100 188v203q0 12 8.5 20.5t20.5 8.5h133q12 0 20.5 -8.5t8.5 -20.5v-121q0 -10 10 -20l51 -51q9 -9 19 -9h374q8 0 17 9l51 49q4 4 4 10v301l-61 59h-471q-24 0 -47 23l-115 115q-23 23 -23 51v434q0 28 23 51l115 117q18 21 51 21h530q30 0 51 -21l117 -115 q21 -21 21 -53v-215q0 -12 -8.5 -20.5t-20.5 -8.5h-133q-12 0 -20.5 8.5t-8.5 20.5v137q0 11 -8 19l-51 53q-4 4 -8 4h-394q-6 0 -10 -4l-49 -51q-6 -6 -6 -17v-284q0 -9 8 -17l47 -47q10 -10 23 -10h452q26 0 49 -23l117 -114q21 -21 21 -54v-428q0 -30 -23 -53l-115 -114 q-23 -23 -51 -23h-528q-30 0 -53 23l-115 114q-23 23 -23 51z" />
<glyph unicode="t" horiz-adv-x="966" d="M45 1266v133q0 12 8.5 21.5t20.5 9.5h819q12 0 20.5 -9.5t8.5 -21.5v-133q0 -11 -8.5 -20t-20.5 -9h-313v-1212q0 -10 -8 -17.5t-17 -7.5h-143q-9 0 -17 7.5t-8 17.5v1212h-313q-12 0 -20.5 9t-8.5 20z" />
<glyph unicode="u" horiz-adv-x="1124" d="M109 190v1211q0 11 8 20t20 9h133q12 0 20.5 -9t8.5 -20v-1137l8 -14l53 -51q9 -9 19 -9h366q16 0 25 9l51 51q4 4 4 8v1143q0 11 8.5 20t20.5 9h133q12 0 20.5 -9t8.5 -20v-1213q0 -28 -23 -51l-114 -114q-23 -23 -52 -23h-528q-30 0 -53 23l-115 114q-22 22 -22 53z " />
<glyph unicode="v" horiz-adv-x="993" d="M23 1391q-1 3 -1 7q0 8 6 18q8 14 19 14h146q24 0 30 -29l185 -735l88 -383l88 383l184 735q6 29 31 29h145q12 0 20 -14q6 -10 6 -18q0 -3 -1 -7l-355 -1358q-3 -14 -14.5 -23.5t-24.5 -9.5h-159q-12 0 -24 10t-15 23z" />
<glyph unicode="w" horiz-adv-x="1302" d="M66 1399q0 12 8 21.5t20 9.5h133q12 0 20.5 -9.5t8.5 -21.5l72 -1094l4 -29l217 685q11 28 33 28h139q21 0 31 -28l217 -685l4 29l71 1094q0 12 9.5 21.5t21.5 9.5h133q11 0 20.5 -10.5t8.5 -24.5l-111 -1366q0 -11 -7 -20t-17 -9h-203q-20 0 -29 29l-161 460l-58 191 l-59 -191l-160 -460q-9 -29 -31 -29h-200q-9 0 -18 9.5t-9 19.5z" />
<glyph unicode="x" horiz-adv-x="980" d="M31 29l354 710l-338 652q-7 14 2 26.5t23 12.5h153q23 0 39 -31l225 -451l226 451q15 31 39 31h153q14 0 23 -12.5t2 -26.5l-338 -652l354 -710q2 -4 2 -7q0 -6 -6 -12q-10 -10 -24 -10h-146q-11 0 -17.5 7t-13.5 22l-254 510l-253 -510q-14 -29 -31 -29h-146 q-13 0 -23 10q-7 6 -7 12q0 3 2 7z" />
<glyph unicode="y" horiz-adv-x="1087" d="M12 1419q8 11 31 11h154q17 0 34 -27l314 -574l313 574q17 27 35 27h154q23 0 31 -11q3 -5 3 -10q0 -7 -6 -16l-436 -787v-577q0 -12 -7 -20.5t-16 -8.5h-143q-10 0 -17 8.5t-7 20.5v579l-435 785q-6 8 -6 15q0 6 4 11z" />
<glyph unicode="z" horiz-adv-x="1019" d="M72 29v137q0 9 6 18l631 1053h-609q-12 0 -20 9.5t-8 21.5v131q0 12 8 21.5t20 9.5h820q12 0 20 -9.5t8 -21.5v-125q0 -14 -10 -29l-633 -1055h615q12 0 20 -8t8 -20v-133q0 -12 -8 -20.5t-20 -8.5h-820q-12 0 -20 8.5t-8 20.5z" />
<glyph unicode="|" horiz-adv-x="456" d="M133 29v1370q0 12 8.5 21.5t20.5 9.5h133q12 0 20.5 -9.5t8.5 -21.5v-1370q0 -12 -8.5 -20.5t-20.5 -8.5h-133q-12 0 -20.5 8.5t-8.5 20.5z" />
<glyph unicode="&#x2000;" horiz-adv-x="721" />
<glyph unicode="&#x2001;" horiz-adv-x="1442" />
<glyph unicode="&#x2002;" horiz-adv-x="721" />
<glyph unicode="&#x2003;" horiz-adv-x="1442" />
<glyph unicode="&#x2004;" horiz-adv-x="480" />
<glyph unicode="&#x2005;" horiz-adv-x="360" />
<glyph unicode="&#x2006;" horiz-adv-x="240" />
<glyph unicode="&#x2007;" horiz-adv-x="240" />
<glyph unicode="&#x2008;" horiz-adv-x="180" />
<glyph unicode="&#x2009;" horiz-adv-x="288" />
<glyph unicode="&#x200a;" horiz-adv-x="80" />
<glyph unicode="&#x2013;" horiz-adv-x="1075" d="M92 670v135q0 11 7.5 20t17.5 9h835q12 0 21.5 -8.5t9.5 -20.5v-135q0 -12 -9.5 -20.5t-21.5 -8.5h-835q-10 0 -17.5 9t-7.5 20z" />
<glyph unicode="&#x2014;" horiz-adv-x="1546" d="M92 670v135q0 11 7.5 20t17.5 9h1306q12 0 21.5 -8.5t9.5 -20.5v-135q0 -12 -9.5 -20.5t-21.5 -8.5h-1306q-10 0 -17.5 9t-7.5 20z" />
<glyph unicode="&#x2018;" horiz-adv-x="335" d="M72 1241v158q0 12 8 20t20 8h136q12 0 20 -8t8 -20v-279q0 -12 -11 -18.5t-26 2.5l-127 96q-28 22 -28 41z" />
<glyph unicode="&#x2019;" horiz-adv-x="335" d="M72 1120v279q0 12 8 20t20 8h136q12 0 20 -8t8 -20v-162q0 -15 -28 -37l-127 -96q-15 -9 -26 -2.5t-11 18.5z" />
<glyph unicode="&#x201c;" horiz-adv-x="661" d="M72 1241v158q0 12 8 20t20 8h136q12 0 20 -8t8 -20v-279q0 -12 -11 -18.5t-26 2.5l-127 96q-28 22 -28 41zM397 1241v158q0 12 8.5 20t20.5 8h135q12 0 20.5 -8t8.5 -20v-279q0 -12 -11 -18.5t-26 2.5l-127 96q-16 12 -22.5 20.5t-6.5 20.5z" />
<glyph unicode="&#x201d;" horiz-adv-x="661" d="M72 1120v279q0 12 8 20t20 8h136q12 0 20 -8t8 -20v-158q0 -19 -28 -41l-127 -96q-15 -9 -26 -2.5t-11 18.5zM397 1120v279q0 12 8.5 20t20.5 8h135q12 0 20.5 -8t8.5 -20v-158q0 -12 -6.5 -20.5t-22.5 -20.5l-127 -96q-15 -9 -26 -2.5t-11 18.5z" />
<glyph unicode="&#x2022;" horiz-adv-x="638" d="M123 573v322q0 19 12 31t31 12h307q18 0 30.5 -12.5t12.5 -30.5v-322h-2q-1 -17 -13 -26.5t-28 -9.5h-307q-16 0 -28 9.5t-13 26.5h-2z" />
<glyph unicode="&#x202f;" horiz-adv-x="288" />
<glyph unicode="&#x2044;" horiz-adv-x="1009" d="M47 35l701 1366q14 29 28 29h168q11 0 19 -9.5t4 -19.5l-688 -1372q-17 -29 -39 -29h-166q-18 0 -26 10t-1 25z" />
<glyph unicode="&#x205f;" horiz-adv-x="360" />
<glyph unicode="&#x25fc;" horiz-adv-x="1433" d="M0 0v1434h1434v-1434h-1434z" />
</font>
</defs>
</svg>
