<?xml version="1.0" standalone="no"?>
<!DOCTYPE svg PUBLIC "-//W3C//DTD SVG 1.1//EN" "http://www.w3.org/Graphics/SVG/1.1/DTD/svg11.dtd" >
<svg xmlns="http://www.w3.org/2000/svg">
<metadata></metadata>
<defs>
<font id="liberatormedium" horiz-adv-x="442" >
<font-face units-per-em="2048" ascent="1536" descent="-512" />
<missing-glyph horiz-adv-x="491" />
<glyph unicode="fi" horiz-adv-x="1431" d="M111 29v1372q0 12 8 20.5t20 8.5h744q12 0 20 -8.5t8 -20.5v-189q0 -9 -6 -18.5t-16 -9.5h-533v-346h418q12 0 20.5 -8.5t8.5 -20.5v-188q0 -12 -8.5 -20.5t-20.5 -8.5h-418v-563q0 -12 -8 -20.5t-20 -8.5h-189q-12 0 -20 8.5t-8 20.5zM1075 29v1372q0 12 8.5 20.5 t20.5 8.5h188q12 0 20.5 -8.5t8.5 -20.5v-1372q0 -12 -8.5 -20.5t-20.5 -8.5h-188q-12 0 -20.5 8.5t-8.5 20.5z" />
<glyph unicode="fl" horiz-adv-x="1994" d="M111 29v1372q0 12 8 20.5t20 8.5h744q12 0 20 -8.5t8 -20.5v-189q0 -9 -6 -18.5t-16 -9.5h-533v-346h418q12 0 20.5 -8.5t8.5 -20.5v-188q0 -12 -8.5 -20.5t-20.5 -8.5h-418v-563q0 -12 -8 -20.5t-20 -8.5h-189q-12 0 -20 8.5t-8 20.5zM1075 29v1376q0 10 9 17.5t20 7.5 h188q11 0 20 -7.5t9 -17.5v-1159h604q12 0 20.5 -8.5t8.5 -20.5v-188q0 -12 -8.5 -20.5t-20.5 -8.5h-821q-12 0 -20.5 8.5t-8.5 20.5z" />
<glyph unicode="&#xd;" horiz-adv-x="491" />
<glyph unicode=" "  horiz-adv-x="491" />
<glyph unicode="&#x09;" horiz-adv-x="491" />
<glyph unicode="&#xa0;" horiz-adv-x="491" />
<glyph unicode="!" d="M98 25v221q0 12 8.5 20t20.5 8h188q12 0 20.5 -8t8.5 -20v-221q0 -10 -9 -17.5t-20 -7.5h-188q-11 0 -20 7.5t-9 17.5zM98 543v837q0 12 8.5 20.5t20.5 8.5h188q12 0 20.5 -8.5t8.5 -20.5v-837q0 -9 -9.5 -17t-19.5 -8h-188q-10 0 -19.5 8t-9.5 17z" />
<glyph unicode="&#x22;" horiz-adv-x="708" d="M68 1077v324q0 12 8 20.5t20 8.5h193q10 0 17 -6.5t7 -14.5v-340q0 -8 -7 -14t-17 -6h-193q-12 0 -20 8t-8 20zM395 1077v324q0 12 8.5 20.5t20.5 8.5h192q10 0 17.5 -6.5t7.5 -14.5v-334q0 -12 -7 -19t-18 -7h-192q-12 0 -20.5 8t-8.5 20z" />
<glyph unicode="#" horiz-adv-x="1497" d="M68 354v189q0 11 7 19.5t17 8.5h209l94 285h-303q-10 1 -17 9.5t-7 19.5v188q0 11 7 20t17 9h385l98 299q11 29 31 29h201q13 0 22.5 -9t6.5 -20l-97 -299h295l101 299q11 29 30 29h201q15 0 23 -10.5t2 -26.5l-95 -291h105q11 0 20 -9t9 -20v-188q0 -12 -9 -20.5 t-20 -8.5h-182l-93 -285h275q11 0 20 -8t9 -20v-189q0 -12 -9 -20t-20 -8h-354l-95 -297q-5 -11 -16 -20t-21 -9h-208q-13 0 -22 9t-5 22l98 295h-289l-96 -297q-5 -11 -15.5 -20t-21.5 -9h-209q-18 0 -24.5 12t0.5 29l98 285h-129q-10 1 -17 9t-7 19zM567 571h293l94 285 h-295z" />
<glyph unicode="$" horiz-adv-x="999" d="M96 295v162q0 12 8.5 21t20.5 9h188q12 0 20.5 -9t8.5 -21v-105h268l41 39q6 6 6 15v137q0 10 -6 14l-43 39h-327q-28 0 -48 20l-114 117q-23 26 -23 51v357q0 30 23 53l114 117q20 20 54 20h108v80q0 12 9.5 20.5t21.5 8.5h186q12 0 21.5 -8.5t9.5 -20.5v-80h70 q35 0 53 -20l115 -117q22 -22 22 -51v-174q0 -12 -8.5 -20.5t-20.5 -8.5h-188q-12 0 -20.5 8.5t-8.5 20.5v116h-268l-41 -41q-6 -6 -6 -10v-135q0 -10 6 -16l41 -41h324q30 0 53 -23l115 -114q22 -22 22 -54v-348q0 -39 -22 -61l-115 -115q-21 -21 -53 -21h-70v-77 q0 -12 -9.5 -20.5t-21.5 -8.5h-186q-12 0 -21.5 8.5t-9.5 20.5v77h-108q-33 0 -54 21l-114 115q-23 23 -23 53z" />
<glyph unicode="%" horiz-adv-x="1099" d="M69.5 12.5q-3.5 12.5 8.5 34.5l694 1354q14 29 29 29h207q13 0 20 -10.5t0 -26.5l-684 -1364q-5 -11 -16.5 -20t-22.5 -9h-207q-25 0 -28.5 12.5zM84 1180v221q0 12 8.5 20.5t20.5 8.5h188q11 0 20 -8.5t9 -20.5v-221q0 -10 -9 -17.5t-20 -7.5h-188q-11 0 -20 7.5 t-9 17.5zM778 31v221q0 12 8.5 21.5t20.5 9.5h188q11 0 20 -9.5t9 -21.5v-221q0 -10 -9 -17.5t-20 -7.5h-188q-11 0 -20 7.5t-9 17.5z" />
<glyph unicode="&#x26;" horiz-adv-x="1202" d="M94 188v406q0 20 23 43l59 59l-59 60q-14 13 -18.5 24t-4.5 31v430q0 28 23 51l114 115q10 10 27 16.5t27 6.5h514q28 0 53 -23l115 -115q22 -22 22 -51v-217q0 -12 -6.5 -20.5t-15.5 -8.5h-201q-10 0 -17.5 8.5t-7.5 20.5v158h-329q-7 0 -13 -6l-34 -35q-7 -7 -7 -13 v-247q0 -10 7 -15l28 -28h748q12 0 20 -8.5t8 -20.5v-188q0 -12 -8 -20.5t-20 -8.5h-152v-404q0 -29 -22 -51l-115 -114q-23 -23 -45 -23h-531q-25 0 -45 23l-114 114q-23 23 -23 51zM358 293q0 -12 7 -17l28 -28h348v344h-329q-7 0 -13 -6l-34 -39q-7 -7 -7 -19v-235z" />
<glyph unicode="'" horiz-adv-x="380" d="M68 1077v332q0 21 26 21h191q12 0 20 -8.5t8 -20.5v-330q0 -10 -6.5 -16.5t-17.5 -5.5h-193q-10 0 -19 8.5t-9 19.5z" />
<glyph unicode="(" horiz-adv-x="583" d="M113 190v1051q0 31 22 53l115 115q21 21 53 21h223v-246h-114q-7 0 -13 -6l-34 -33q-7 -7 -7 -12v-844q0 -8 7 -15l28 -28h133v-246h-221q-35 0 -55 20l-115 117q-22 22 -22 53z" />
<glyph unicode=")" horiz-adv-x="583" d="M57 0v246h133l29 28q6 6 6 15v844q0 6 -6 12l-35 33q-6 6 -12 6h-115v246h224q32 0 53 -21l115 -115q22 -22 22 -53v-1051q0 -31 -22 -53l-115 -117q-20 -20 -55 -20h-222z" />
<glyph unicode="*" horiz-adv-x="905" d="M106.5 1200.5q-0.5 7.5 4.5 13.5l82 117q10 17 24 6l156 -123l-11 199q0 6 5 11.5t12 5.5h145q7 0 12 -5.5t5 -11.5l-11 -199l156 123q14 12 25 -6l84 -117q10 -13 -4 -24l-201 -129l203 -131q11 -5 2 -23l-84 -116q-3 -6 -10 -8.5t-13 1.5l-158 123l11 -200q0 -5 -5 -10 t-12 -5h-145q-6 0 -11.5 5t-5.5 10l11 200l-158 -123q-11 -8 -22 7l-82 116q-11 15 0 23l202 131l-200 129q-6 3 -6.5 10.5z" />
<glyph unicode="+" horiz-adv-x="1026" d="M68 643v188q0 11 7 20t17 9h297v293q0 12 9 20.5t20 8.5h188q12 0 20.5 -8.5t8.5 -20.5v-293h295q11 0 19.5 -8.5t8.5 -20.5v-188q0 -12 -8.5 -20.5t-19.5 -8.5h-295v-297q0 -10 -9 -17t-20 -7h-188q-11 0 -20 7t-9 17v297h-297q-10 0 -17 9t-7 20z" />
<glyph unicode="," d="M98 -186v432q0 12 8.5 20t20.5 8h188q12 0 20.5 -8t8.5 -20v-320q0 -13 -6.5 -20t-22.5 -15l-180 -96q-17 -7 -27 0t-10 19z" />
<glyph unicode="-" horiz-adv-x="884" d="M68 643v188q0 11 7 20t17 9h694q12 0 21.5 -8.5t9.5 -20.5v-188q0 -12 -9.5 -20.5t-21.5 -8.5h-694q-10 0 -17 9t-7 20z" />
<glyph unicode="." d="M98 25v221q0 12 8.5 20t20.5 8h188q12 0 20.5 -8t8.5 -20v-221q0 -10 -9 -17.5t-20 -7.5h-188q-11 0 -20 7.5t-9 17.5z" />
<glyph unicode="/" horiz-adv-x="1040" d="M42.5 12q-7.5 12 0.5 29l698 1360q15 29 29 29h203q14 0 23 -9.5t5 -19.5l-688 -1372q-5 -11 -16.5 -20t-22.5 -9h-206q-18 0 -25.5 12z" />
<glyph unicode="0" horiz-adv-x="1110" d="M100 190v1049q0 30 23 53l115 115q16 16 26 19.5t27 3.5h528q30 0 53 -23l117 -115q21 -21 21 -53v-1049v-7v-7t-0.5 -6.5t-2 -7t-3.5 -7t-6 -9t-9 -9.5l-117 -114q-11 -11 -24 -17t-20 -6h-7h-530q-30 0 -53 23l-115 114q-23 23 -23 53zM348 291q0 -9 6 -15l29 -28h344 l29 28q6 4 6 15v835q0 9 -6 15l-31 33q-8 8 -16 8h-308q-6 0 -12 -6l-35 -35q-6 -6 -6 -15v-835z" />
<glyph unicode="1" horiz-adv-x="522" d="M31 1193q-6 11 2 28l96 182q12 27 31 27h223q11 0 20 -8.5t9 -20.5v-1372q0 -12 -9 -20.5t-20 -8.5h-190q-12 0 -20.5 8.5t-8.5 20.5v1153h-115q-12 0 -18 11z" />
<glyph unicode="2" horiz-adv-x="1118" d="M106 29v606q0 28 25 53l115 115q16 16 24.5 19t28.5 3h457l28 29q7 7 7 16v256q0 6 -7 15l-32 35q-6 6 -15 6h-381v-156q0 -12 -8 -21.5t-20 -9.5h-191q-12 0 -20 9.5t-8 21.5v213q0 31 22 53l115 115q16 16 25 19.5t28 3.5h530q31 0 54 -23l114 -115q21 -21 21 -53v-471 q0 -32 -21 -53l-116 -115q-11 -11 -24 -16.5t-21 -5.5h-7h-421q-4 0 -11 -7l-35 -32q-8 -8 -8 -17v-274h633q12 0 20.5 -8.5t8.5 -20.5v-190q0 -12 -8.5 -20.5t-20.5 -8.5h-852q-12 0 -20.5 8.5t-8.5 20.5z" />
<glyph unicode="3" horiz-adv-x="1067" d="M76 190v213q0 12 8 21.5t20 9.5h191q12 0 20.5 -9.5t8.5 -21.5v-155h364l29 28q6 6 6 15v239q0 15 -6 21l-35 35q-6 6 -14 6h-267v248h287l29 28q6 6 6 15v243q0 9 -6 15l-35 35q-6 6 -14 6h-344v-156q0 -12 -8.5 -21.5t-20.5 -9.5h-191q-12 0 -20 9.5t-8 21.5v213v5v7.5 t0.5 6.5t2 7.5t4 7.5t6.5 9.5t9 9.5l115 115q16 16 25.5 19.5t27.5 3.5h514q29 0 54 -23l114 -115q23 -23 23 -53v-426q0 -30 -23 -53l-61 -62l61 -59q23 -23 23 -39v-401q0 -15 -1 -22t-6 -18t-16 -22l-114 -114q-12 -12 -26.5 -17t-21.5 -5.5t-26 -0.5h-484q-40 0 -63 23 l-115 114q-22 22 -22 53z" />
<glyph unicode="4" horiz-adv-x="1136" d="M100 616v785q0 12 8.5 20.5t20.5 8.5h190q12 0 20.5 -8.5t8.5 -20.5v-684q0 -9 6 -15l29 -28h319v727q0 12 8.5 20.5t20.5 8.5h189q12 0 20 -8.5t8 -20.5v-727h107q12 0 20 -8.5t8 -20.5v-190q0 -11 -8 -20t-20 -9h-107v-397q0 -12 -8 -20.5t-20 -8.5h-189 q-12 0 -20.5 8.5t-8.5 20.5v397h-411q-30 0 -53 23l-115 114q-23 23 -23 53z" />
<glyph unicode="5" horiz-adv-x="1118" d="M109 173v17v213q0 12 8 21.5t20 9.5h191q12 0 20 -9.5t8 -21.5v-155h361q8 0 14 6l33 33q6 6 6 16v258q0 9 -6 17l-29 28h-436q-30 0 -53 23l-115 114q-22 22 -22 54v604q0 12 8 20.5t20 8.5h852q12 0 20.5 -8.5t8.5 -20.5v-189q0 -12 -8.5 -20t-20.5 -8h-633v-275 q0 -10 6 -16l35 -33q6 -6 13 -6h419q12 0 17.5 -1t14 -6t20.5 -16l116 -114q21 -21 21 -53v-474q0 -32 -21 -53l-114 -114q-23 -23 -54 -23h-530q-30 0 -53 23l-115 114q-12 11 -17 22t-5 14z" />
<glyph unicode="6" horiz-adv-x="1087" d="M100 190v1049q0 30 23 53l115 115q23 23 53 23h514q30 0 53 -23l115 -115q22 -22 22 -57v-209q0 -12 -9 -21.5t-21 -9.5h-168q-12 0 -20.5 9.5t-8.5 21.5v156h-367q-6 0 -12 -6l-35 -35q-6 -6 -6 -15v-217q0 -8 6 -14l29 -29h422q31 0 53 -22l115 -115q11 -12 16 -21 t5.5 -14t0.5 -18v-488q0 -29 -22 -51l-115 -114q-23 -23 -53 -23h-524q-20 0 -43 23l-115 114q-23 23 -23 53zM348 291q0 -9 6 -15l27 -26h332l28 29q7 11 7 14v274q0 8 -7 15l-39 36h-301q-6 0 -12 -6l-35 -34q-6 -6 -6 -15v-272z" />
<glyph unicode="7" horiz-adv-x="985" d="M49 1210v191q0 12 8.5 20.5t20.5 8.5h821q12 0 20.5 -8.5t8.5 -20.5v-209q0 -29 -17 -74l-399 -1118h-260q-5 0 -7 8t1 15l413 1159h-581q-12 0 -20.5 8t-8.5 20z" />
<glyph unicode="8" horiz-adv-x="1085" d="M94 188v392q0 6 2 11t4.5 8t8 9t8.5 10l59 80l-59 82q-23 33 -23 54v407q0 28 23 51l114 115q23 23 54 23h514q28 0 53 -23l115 -115q22 -22 22 -51v-407q0 -23 -22 -54l-62 -82l62 -80q22 -29 22 -47v-383q0 -29 -22 -51l-115 -114q-23 -23 -45 -23h-531q-25 0 -45 23 l-114 114q-23 23 -23 51zM342 291q0 -11 6 -15l29 -28h330l28 28q6 6 6 15v235q0 13 -6 19l-35 35q-6 6 -14 6h-287q-10 0 -16 -6l-35 -35q-6 -6 -6 -19v-235zM342 889q0 -9 6 -15l29 -28h330l28 28q6 6 6 15v239q0 7 -6 13l-35 35q-6 6 -14 6h-291q-6 0 -12 -6l-35 -35 q-6 -6 -6 -15v-237z" />
<glyph unicode="9" horiz-adv-x="1087" d="M92 190v213q0 12 8.5 21.5t20.5 9.5h190q12 0 20.5 -9.5t8.5 -21.5v-153h344q10 0 14 6l35 35q6 6 6 14v217q0 6 -6 15l-28 28h-422q-33 0 -54 21l-114 116q-23 23 -23 54v487q0 31 23 51l114 113q23 23 54 23h528q18 0 39 -21l115 -115q22 -22 22 -53v-1048 q0 -34 -22 -56l-115 -114q-12 -12 -22.5 -17t-14.5 -5.5t-16 -0.5h-514q-31 0 -54 23l-114 114q-23 23 -23 53zM340 866q0 -8 6 -14l35 -33q4 -4 12 -4h291q10 0 14 6l35 35q6 6 6 14v271q0 8 -6 14l-26 27h-332l-29 -29q-6 -6 -6 -14v-273z" />
<glyph unicode=":" d="M98 25v221q0 12 8.5 20t20.5 8h188q12 0 20.5 -8t8.5 -20v-221q-1 -10 -9.5 -17.5t-19.5 -7.5h-188q-11 0 -19.5 7.5t-9.5 17.5zM98 545v221q0 11 8.5 20t20.5 9h188q12 0 20.5 -9t8.5 -20v-221q-2 -11 -10.5 -19t-18.5 -8h-188q-10 0 -18.5 8t-10.5 19z" />
<glyph unicode=";" d="M98 -186v432q0 12 8.5 20t20.5 8h188q12 0 20.5 -8t8.5 -20v-320q0 -13 -6.5 -20t-22.5 -15l-180 -96q-17 -7 -27 0t-10 19zM98 545v221q0 11 8.5 20t20.5 9h188q12 0 20.5 -9t8.5 -20v-221q-2 -11 -10.5 -19t-18.5 -8h-188q-10 0 -18.5 8t-10.5 19z" />
<glyph unicode="&#x3c;" horiz-adv-x="946" d="M78 393v275q0 7 1 12t6 9t6.5 5t10.5 6l727 357q17 9 28 0t11 -27v-221q0 -12 -8.5 -23t-19.5 -16l-523 -240l523 -239q11 -5 19.5 -16t8.5 -23v-221q0 -18 -11 -27t-28 0l-727 356q-9 5 -13 8t-7.5 9.5t-3.5 15.5z" />
<glyph unicode="=" horiz-adv-x="1067" d="M88 440v189q0 11 7.5 19.5t17.5 8.5h837q11 0 20 -8t9 -20v-189q0 -10 -9 -19t-20 -9h-837q-10 0 -17.5 8.5t-7.5 19.5zM88 846v188q0 11 7.5 20t17.5 9h837q11 0 20 -8.5t9 -20.5v-188q0 -10 -9.5 -19.5t-19.5 -9.5h-837q-10 0 -17.5 9t-7.5 20z" />
<glyph unicode="&#x3e;" horiz-adv-x="946" d="M78 31v221q0 12 8.5 23t19.5 16l523 239l-523 240q-11 5 -19.5 16t-8.5 23v221q0 18 11 27t28 0l727 -357q1 0 4 -2t4 -2.5t3.5 -2t3 -2.5t2.5 -2.5t2.5 -3t2 -3.5t1.5 -4t0.5 -4.5t0.5 -5.5v-275q0 -9 -3.5 -15.5t-7.5 -9.5t-13 -8l-727 -356q-17 -9 -28 0t-11 27z" />
<glyph unicode="?" horiz-adv-x="1056" d="M70 1008v231q0 33 22 55l115 115q21 21 53 21h528q29 0 54 -23l114 -115q23 -23 23 -37v-680q0 -12 -8.5 -21t-20.5 -9h-346v-129q0 -12 -8.5 -20.5t-20.5 -8.5h-190q-11 0 -20 8.5t-9 20.5v348q0 12 9 20.5t20 8.5h346v346q0 8 -6 14l-29 29h-344l-28 -29q-7 -11 -7 -14 v-131q0 -12 -8 -20.5t-20 -8.5h-191q-12 0 -20 8.5t-8 20.5zM356 25v202q0 12 9 20.5t20 8.5h190q12 0 20.5 -8.5t8.5 -20.5v-202q0 -10 -9 -17.5t-20 -7.5h-190q-11 0 -20 7.5t-9 17.5z" />
<glyph unicode="@" horiz-adv-x="1615" d="M131 -72v1125q0 23 14 37l78 77q15 15 37 15h1096q20 0 35 -15l77 -77q17 -15 17 -35v-940h-922q-21 0 -35 14l-77 78q-17 17 -17 37v506q0 19 17 36l77 78q7 7 16 11t14 4h5h479q21 1 37 -15l78 -78q7 -7 10.5 -16t3.5 -14v-6v-433h109v623q0 6 -4 12l-23 23q-8 4 -10 4 h-872q-5 0 -9 -4l-24 -23q-4 -4 -4 -12v-909q0 -4 4 -8l20 -21h805v-203h-903q-22 0 -37 15l-78 77q-14 14 -14 37zM639 348q0 -6 4 -10l19 -21h282l19 21l6 8v289q0 8 -6 12l-23 23q-4 4 -12 4h-252q-6 0 -10 -4l-23 -23q-4 -4 -4 -10v-289z" />
<glyph unicode="A" horiz-adv-x="1146" d="M18 31l406 1370q10 31 29 31h241q21 0 31 -29l403 -1372q1 -3 1 -6q1 -9 -7 -15q-10 -10 -22 -10h-178q-12 0 -24 9.5t-15 21.5l-80 274h-457l-80 -274q-5 -12 -16 -21.5t-23 -9.5h-178q-13 0 -23 10q-8 8 -9 16q0 3 1 5zM420 555h309l-156 522z" />
<glyph unicode="B" horiz-adv-x="1077" d="M111 31v1370q0 12 8 20.5t20 8.5h652q30 0 53 -23l114 -115q23 -23 23 -53v-371q0 -12 -1 -18t-6 -15t-16 -20l-79 -80l79 -82q23 -25 23 -53v-410q0 -30 -23 -53l-114 -117q-20 -20 -53 -20h-652q-12 0 -20 9.5t-8 21.5zM356 248h322q7 0 16 6l33 31q8 8 8 16v256l-6 10 l-35 35q-6 6 -16 6h-322v-360zM356 854h326q6 0 12 6l35 33q6 6 6 14v234q0 8 -6 14l-29 29h-344v-330z" />
<glyph unicode="C" horiz-adv-x="1085" d="M100 184v1057q0 32 21 53l117 115q21 21 53 21h528q32 0 53 -21l115 -115q9 -9 13 -14.5t7 -15t3 -23.5v-219q0 -12 -8.5 -20.5t-20.5 -8.5h-188q-12 0 -20.5 8.5t-8.5 20.5v108q0 9 -6 15l-35 33q-9 6 -12 6h-308q-10 0 -16 -6l-35 -33q-6 -6 -6 -15v-837q0 -13 6 -19 l29 -28h348l29 28q6 6 6 15v114q0 12 8.5 21.5t20.5 9.5h188q12 0 20.5 -9.5t8.5 -21.5v-217q0 -26 -23 -49l-115 -117q-20 -20 -53 -20h-534q-27 0 -47 20l-117 117q-21 21 -21 47z" />
<glyph unicode="D" horiz-adv-x="1081" d="M111 29v1372q0 12 8 20.5t20 8.5h652q32 0 53 -21l114 -115q12 -12 17 -22.5t5.5 -14.5t0.5 -16v-1053q0 -23 -23 -51l-114 -117q-20 -20 -64 -20h-641q-12 0 -20 8.5t-8 20.5zM356 246h342l29 28q6 4 6 15v841q0 9 -6 15l-33 33q-6 6 -14 6h-324v-938z" />
<glyph unicode="E" horiz-adv-x="964" d="M111 29v1372q0 12 8 20.5t20 8.5h744q12 0 20 -8.5t8 -20.5v-189q0 -11 -8 -19.5t-20 -8.5h-527v-346h416q11 0 20 -8.5t9 -20.5v-188q0 -12 -9 -20.5t-20 -8.5h-416v-346h527q12 0 20 -8.5t8 -20.5v-188q0 -12 -8 -20.5t-20 -8.5h-744q-12 0 -20 8.5t-8 20.5z" />
<glyph unicode="F" horiz-adv-x="964" d="M111 29v1372q0 12 8 20.5t20 8.5h744q12 0 20 -8.5t8 -20.5v-189q0 -9 -6 -18.5t-16 -9.5h-533v-346h418q12 0 20.5 -8.5t8.5 -20.5v-188q0 -12 -8.5 -20.5t-20.5 -8.5h-418v-563q0 -12 -8 -20.5t-20 -8.5h-189q-12 0 -20 8.5t-8 20.5z" />
<glyph unicode="G" horiz-adv-x="1110" d="M100 184v1057q0 32 21 53l117 115q21 21 53 21h528q32 0 53 -21l115 -115q23 -23 23 -53v-219q0 -12 -8.5 -20.5t-20.5 -8.5h-188q-12 0 -20.5 8.5t-8.5 20.5v108q0 11 -6 15l-35 33q-6 6 -16 6h-304q-10 0 -16 -6l-35 -33q-6 -6 -6 -15v-841q0 -9 6 -15l29 -28h348 l29 28q6 6 6 15v235h-191q-12 0 -20 8.5t-8 20.5v188q0 12 8 20.5t20 8.5h408q12 0 20.5 -8.5t8.5 -20.5v-567q0 -10 -23 -37l-115 -117q-18 -20 -38 -20h-549q-27 0 -47 20l-117 117q-21 21 -21 47z" />
<glyph unicode="H" horiz-adv-x="1130" d="M111 29v1372q0 12 8 20.5t20 8.5h189q12 0 20 -8.5t8 -20.5v-563h418v563q0 12 8.5 20.5t20.5 8.5h188q12 0 20.5 -8.5t8.5 -20.5v-1372q0 -12 -8.5 -20.5t-20.5 -8.5h-188q-12 0 -20.5 8.5t-8.5 20.5v563h-418v-563q0 -12 -8 -20.5t-20 -8.5h-189q-12 0 -20 8.5t-8 20.5 z" />
<glyph unicode="I" horiz-adv-x="466" d="M111 29v1372q0 12 8 20.5t20 8.5h189q12 0 20 -8.5t8 -20.5v-1372q0 -12 -8 -20.5t-20 -8.5h-189q-12 0 -20 8.5t-8 20.5z" />
<glyph unicode="J" horiz-adv-x="1087" d="M74 174v322q0 12 8 20t20 8h189q12 0 20 -8t8 -20v-207q0 -8 7 -15l28 -28h348l29 28q6 6 6 15v1116q0 10 9 17.5t20 7.5h188q11 0 20 -7.5t9 -17.5v-1215q0 -31 -22 -53l-115 -117q-20 -20 -49 -20h-533q-33 0 -53 20l-115 117q-22 26 -22 37z" />
<glyph unicode="K" horiz-adv-x="1062" d="M111 29v1372q0 12 8 20.5t20 8.5h189q12 0 20 -8.5t8 -20.5v-529l359 529q18 29 37 29h254q21 0 31 -11t-1 -28l-379 -527l387 -817q6 -12 6 -22q0 -6 -2 -11q-5 -14 -24 -14h-217q-11 0 -22.5 9t-16.5 20l-272 612l-140 -195v-417q0 -12 -8 -20.5t-20 -8.5h-189 q-12 0 -20 8.5t-8 20.5z" />
<glyph unicode="L" horiz-adv-x="1030" d="M111 29v1376q0 10 8.5 17.5t19.5 7.5h189q11 0 19.5 -7.5t8.5 -17.5v-1159h605q12 0 20 -8.5t8 -20.5v-188q0 -12 -8 -20.5t-20 -8.5h-822q-12 0 -20 8.5t-8 20.5z" />
<glyph unicode="M" horiz-adv-x="1329" d="M78 29l55 1372q0 11 7.5 20t17.5 9h202q22 0 31 -29l273 -1004l274 1004q9 29 31 29h200q9 0 18 -9.5t9 -19.5l55 -1372q0 -12 -8.5 -20.5t-19.5 -8.5h-189q-12 0 -20 8.5t-8 20.5l-13 696l-209 -696q-3 -11 -15 -20t-24 -9h-163q-13 0 -24.5 10t-14.5 23l-209 692 l-10 -696q0 -12 -8.5 -20.5t-20.5 -8.5h-189q-12 0 -20 8.5t-8 20.5z" />
<glyph unicode="N" horiz-adv-x="1105" d="M111 29v1372q0 12 8 20.5t20 8.5h250q21 0 31 -29l317 -821l13 -58v879q0 12 8 20.5t20 8.5h189q12 0 20 -8.5t8 -20.5v-1372q0 -12 -8 -20.5t-20 -8.5h-213q-11 0 -22.5 9t-16.5 20l-359 884v-884q0 -12 -8 -20.5t-20 -8.5h-189q-12 0 -20 8.5t-8 20.5z" />
<glyph unicode="O" horiz-adv-x="1114" d="M102 184v1061q0 28 21 49l117 115q21 21 53 21h528q32 0 53 -21l115 -115q23 -23 23 -53v-1051q0 -30 -23 -53l-115 -117q-20 -20 -69 -20h-518q-27 0 -47 20l-117 117q-21 21 -21 47zM348 289q0 -9 6 -15l29 -28h348l29 28q6 6 6 15v841q0 11 -6 15l-35 33q-6 6 -12 6 h-310q-8 0 -14 -6l-35 -33q-6 -6 -6 -15v-841z" />
<glyph unicode="P" horiz-adv-x="1064" d="M111 29v1372q0 12 8 20.5t20 8.5h652q32 0 53 -21l114 -115q23 -25 23 -53v-526q0 -30 -23 -53l-114 -115q-23 -23 -53 -23h-435v-495q0 -12 -8 -20.5t-20 -8.5h-189q-12 0 -20 8.5t-8 20.5zM356 772h326q8 0 12 4l35 35q4 4 4 8v316q0 6 -4 10l-37 35q-4 4 -10 4h-326 v-412z" />
<glyph unicode="Q" horiz-adv-x="1107" d="M98 184v1059q0 28 21 49l117 115q23 23 53 23h528q28 0 53 -23l115 -115q23 -25 23 -53v-1049q0 -30 -23 -53l-51 -51l96 -170q8 -12 8 -27q0 -9 -8.5 -15.5t-19.5 -6.5h-176q-18 0 -37 29l-68 104h-440q-32 0 -53 23l-117 114q-21 21 -21 47zM344 289q0 -6 6 -15l29 -28 h348l29 28q6 6 6 15v839q0 9 -6 15l-35 35q-6 6 -12 6h-310q-8 0 -14 -6l-35 -35q-6 -6 -6 -15v-839z" />
<glyph unicode="R" horiz-adv-x="1075" d="M111 29v1372q0 12 8 20.5t20 8.5h652q4 1 8 1q24 0 45 -22l114 -115q11 -11 17 -24.5t6 -21.5v-7v-520q0 -36 -23 -59l-120 -121l206 -510q2 -5 2 -10t-3 -11q-6 -10 -23 -10h-195q-11 0 -21.5 9t-15.5 20l-202 497h-230v-497q0 -12 -8 -20.5t-20 -8.5h-189 q-12 0 -20 8.5t-8 20.5zM356 772h324q8 0 14 6l33 33q6 6 6 14v310q0 6 -4 10l-35 33q-9 6 -14 6h-324v-412z" />
<glyph unicode="S" horiz-adv-x="1101" d="M96 184v209q0 11 8.5 20t20.5 9h188q12 0 20.5 -9t8.5 -20v-147h367q4 0 10 6l35 33q6 4 6 14v240q0 8 -6 14l-33 33q-6 6 -14 6h-426q-26 0 -48 22l-116 115q-21 21 -21 51v461q0 30 23 53l114 115q21 21 54 21h528q32 0 53 -21l115 -115q23 -25 23 -53v-215 q0 -12 -8.5 -20.5t-20.5 -8.5h-189q-12 0 -20 8.5t-8 20.5v158h-361q-7 0 -16 -6l-35 -33q-6 -4 -6 -15v-237q0 -8 6 -14l35 -35q6 -6 16 -6h416q32 0 53 -21l115 -115q23 -26 23 -53v-459q0 -30 -23 -53l-115 -117q-20 -20 -53 -20h-528q-21 0 -30.5 4.5t-23.5 18.5 l-116 114q-21 21 -21 47z" />
<glyph unicode="T" horiz-adv-x="960" d="M41 1212v189q0 12 8.5 20.5t20.5 8.5h821q11 0 20 -8.5t9 -20.5v-189q0 -12 -9 -20t-20 -8h-289v-1159q0 -10 -6.5 -17.5t-15.5 -7.5h-199q-9 0 -17 7.5t-8 17.5v1159h-286q-12 0 -20.5 8t-8.5 20z" />
<glyph unicode="U" horiz-adv-x="1116" d="M102 190v1211q0 12 8.5 20.5t20.5 8.5h188q12 0 20.5 -8.5t8.5 -20.5v-1112q0 -9 6 -15l29 -28h348l29 28q6 6 6 15v1112q0 12 8.5 20.5t20.5 8.5h188q11 0 20 -8.5t9 -20.5v-1211q0 -30 -23 -53l-115 -117q-17 -20 -53 -20h-528q-33 0 -53 20l-117 117q-21 21 -21 53z " />
<glyph unicode="V" horiz-adv-x="1044" d="M18 1393q-1 3 -1 7q0 10 6 18q8 12 20 12h201q24 0 30 -29l246 -1055l246 1055q6 29 31 29h200q12 0 21 -13q7 -10 7 -18q0 -3 -1 -6l-354 -1356q-4 -17 -15.5 -27t-23.5 -10h-219q-11 0 -23.5 11t-15.5 22z" />
<glyph unicode="W" horiz-adv-x="1296" d="M61 1401q0 12 8.5 20.5t20.5 8.5h189q12 0 20 -8.5t8 -20.5l58 -864l163 426q10 28 37 28h164q12 0 23.5 -8t15.5 -20l164 -426l57 864q0 12 8.5 20.5t20.5 8.5h188q11 0 20 -8.5t9 -20.5l-111 -1372q0 -10 -7.5 -19.5t-18.5 -9.5h-201q-22 0 -31 29l-219 635l-219 -635 q-9 -29 -29 -29h-202q-9 0 -17 9t-10 20z" />
<glyph unicode="X" horiz-adv-x="1056" d="M31 10q-4 5 -4.5 12.5t4.5 18.5l354 725l-317 635q-6 10 4.5 19.5t23.5 9.5h201q17 0 31 -29l200 -357l201 357q15 29 29 29h203q12 0 21.5 -10.5t2.5 -26.5l-315 -627l354 -723q6 -10 6 -19q0 -5 -2 -10q-5 -14 -27 -14h-208q-11 0 -21.5 9t-15.5 20l-228 452l-227 -452 q-17 -29 -39 -29h-207q-15 0 -24 10z" />
<glyph unicode="Y" horiz-adv-x="1085" d="M12 1397q-3 4 -3 8q0 7 7 14q12 11 25 11h207q22 0 39 -29l256 -514l256 514q17 29 39 29h206q13 0 24 -11q8 -7 8 -14q0 -4 -3 -8l-407 -738v-630q0 -12 -7.5 -20.5t-17.5 -8.5h-199q-9 0 -15.5 8.5t-6.5 20.5v630z" />
<glyph unicode="Z" horiz-adv-x="1013" d="M68 29v190q0 12 6 21l549 944h-527q-12 0 -20 8t-8 20v189q0 12 8 20.5t20 8.5h822q11 0 19.5 -8.5t8.5 -20.5v-184q0 -7 -10 -27l-551 -944h533q11 0 19.5 -8.5t8.5 -20.5v-188q0 -12 -8.5 -20.5t-19.5 -8.5h-822q-12 0 -20 8.5t-8 20.5z" />
<glyph unicode="\" horiz-adv-x="1040" d="M39 1401q-6 10 5 19.5t24 9.5h200q11 0 17.5 -7t13.5 -22l692 -1350q11 -15 8.5 -33t-26.5 -18h-209q-11 0 -21.5 9t-15.5 20z" />
<glyph unicode="^" horiz-adv-x="1196" d="M71.5 647q-7.5 12 0.5 27l356 731q11 25 35 25h270q24 0 35 -25l356 -731q8 -15 0.5 -27t-24.5 -12h-223q-11 0 -21.5 9t-15.5 20l-242 526l-242 -526q-5 -11 -15.5 -20t-21.5 -9h-223q-17 0 -24.5 12z" />
<glyph unicode="a" horiz-adv-x="1146" d="M18 31l406 1370q10 31 29 31h241q21 0 31 -29l403 -1372q1 -3 1 -6q1 -9 -7 -15q-10 -10 -22 -10h-178q-12 0 -24 9.5t-15 21.5l-80 274h-457l-80 -274q-5 -12 -16 -21.5t-23 -9.5h-178q-13 0 -23 10q-8 8 -9 16q0 3 1 5zM420 555h309l-156 522z" />
<glyph unicode="b" horiz-adv-x="1077" d="M111 31v1370q0 12 8 20.5t20 8.5h652q30 0 53 -23l114 -115q23 -23 23 -53v-371q0 -12 -1 -18t-6 -15t-16 -20l-79 -80l79 -82q23 -25 23 -53v-410q0 -30 -23 -53l-114 -117q-20 -20 -53 -20h-652q-12 0 -20 9.5t-8 21.5zM356 248h322q7 0 16 6l33 31q8 8 8 16v256l-6 10 l-35 35q-6 6 -16 6h-322v-360zM356 854h326q6 0 12 6l35 33q6 6 6 14v234q0 8 -6 14l-29 29h-344v-330z" />
<glyph unicode="c" horiz-adv-x="1085" d="M100 184v1057q0 32 21 53l117 115q21 21 53 21h528q32 0 53 -21l115 -115q9 -9 13 -14.5t7 -15t3 -23.5v-219q0 -12 -8.5 -20.5t-20.5 -8.5h-188q-12 0 -20.5 8.5t-8.5 20.5v108q0 9 -6 15l-35 33q-9 6 -12 6h-308q-10 0 -16 -6l-35 -33q-6 -6 -6 -15v-837q0 -13 6 -19 l29 -28h348l29 28q6 6 6 15v114q0 12 8.5 21.5t20.5 9.5h188q12 0 20.5 -9.5t8.5 -21.5v-217q0 -26 -23 -49l-115 -117q-20 -20 -53 -20h-534q-27 0 -47 20l-117 117q-21 21 -21 47z" />
<glyph unicode="d" horiz-adv-x="1081" d="M111 29v1372q0 12 8 20.5t20 8.5h652q32 0 53 -21l114 -115q12 -12 17 -22.5t5.5 -14.5t0.5 -16v-1053q0 -23 -23 -51l-114 -117q-20 -20 -64 -20h-641q-12 0 -20 8.5t-8 20.5zM356 246h342l29 28q6 4 6 15v841q0 9 -6 15l-33 33q-6 6 -14 6h-324v-938z" />
<glyph unicode="e" horiz-adv-x="964" d="M111 29v1372q0 12 8 20.5t20 8.5h744q12 0 20 -8.5t8 -20.5v-189q0 -11 -8 -19.5t-20 -8.5h-527v-346h416q11 0 20 -8.5t9 -20.5v-188q0 -12 -9 -20.5t-20 -8.5h-416v-346h527q12 0 20 -8.5t8 -20.5v-188q0 -12 -8 -20.5t-20 -8.5h-744q-12 0 -20 8.5t-8 20.5z" />
<glyph unicode="f" horiz-adv-x="964" d="M111 29v1372q0 12 8 20.5t20 8.5h744q12 0 20 -8.5t8 -20.5v-189q0 -9 -6 -18.5t-16 -9.5h-533v-346h418q12 0 20.5 -8.5t8.5 -20.5v-188q0 -12 -8.5 -20.5t-20.5 -8.5h-418v-563q0 -12 -8 -20.5t-20 -8.5h-189q-12 0 -20 8.5t-8 20.5z" />
<glyph unicode="g" horiz-adv-x="1110" d="M100 184v1057q0 32 21 53l117 115q21 21 53 21h528q32 0 53 -21l115 -115q23 -23 23 -53v-219q0 -12 -8.5 -20.5t-20.5 -8.5h-188q-12 0 -20.5 8.5t-8.5 20.5v108q0 11 -6 15l-35 33q-6 6 -16 6h-304q-10 0 -16 -6l-35 -33q-6 -6 -6 -15v-841q0 -9 6 -15l29 -28h348 l29 28q6 6 6 15v235h-191q-12 0 -20 8.5t-8 20.5v188q0 12 8 20.5t20 8.5h408q12 0 20.5 -8.5t8.5 -20.5v-567q0 -10 -23 -37l-115 -117q-18 -20 -38 -20h-549q-27 0 -47 20l-117 117q-21 21 -21 47z" />
<glyph unicode="h" horiz-adv-x="1130" d="M111 29v1372q0 12 8 20.5t20 8.5h189q12 0 20 -8.5t8 -20.5v-563h418v563q0 12 8.5 20.5t20.5 8.5h188q12 0 20.5 -8.5t8.5 -20.5v-1372q0 -12 -8.5 -20.5t-20.5 -8.5h-188q-12 0 -20.5 8.5t-8.5 20.5v563h-418v-563q0 -12 -8 -20.5t-20 -8.5h-189q-12 0 -20 8.5t-8 20.5 z" />
<glyph unicode="i" horiz-adv-x="466" d="M111 29v1372q0 12 8 20.5t20 8.5h189q12 0 20 -8.5t8 -20.5v-1372q0 -12 -8 -20.5t-20 -8.5h-189q-12 0 -20 8.5t-8 20.5z" />
<glyph unicode="j" horiz-adv-x="1087" d="M74 174v322q0 12 8 20t20 8h189q12 0 20 -8t8 -20v-207q0 -8 7 -15l28 -28h348l29 28q6 6 6 15v1116q0 10 9 17.5t20 7.5h188q11 0 20 -7.5t9 -17.5v-1215q0 -31 -22 -53l-115 -117q-20 -20 -49 -20h-533q-33 0 -53 20l-115 117q-22 26 -22 37z" />
<glyph unicode="k" horiz-adv-x="1062" d="M111 29v1372q0 12 8 20.5t20 8.5h189q12 0 20 -8.5t8 -20.5v-529l359 529q18 29 37 29h254q21 0 31 -11t-1 -28l-379 -527l387 -817q6 -12 6 -22q0 -6 -2 -11q-5 -14 -24 -14h-217q-11 0 -22.5 9t-16.5 20l-272 612l-140 -195v-417q0 -12 -8 -20.5t-20 -8.5h-189 q-12 0 -20 8.5t-8 20.5z" />
<glyph unicode="l" horiz-adv-x="1030" d="M111 29v1376q0 10 8.5 17.5t19.5 7.5h189q11 0 19.5 -7.5t8.5 -17.5v-1159h605q12 0 20 -8.5t8 -20.5v-188q0 -12 -8 -20.5t-20 -8.5h-822q-12 0 -20 8.5t-8 20.5z" />
<glyph unicode="m" horiz-adv-x="1329" d="M78 29l55 1372q0 11 7.5 20t17.5 9h202q22 0 31 -29l273 -1004l274 1004q9 29 31 29h200q9 0 18 -9.5t9 -19.5l55 -1372q0 -12 -8.5 -20.5t-19.5 -8.5h-189q-12 0 -20 8.5t-8 20.5l-13 696l-209 -696q-3 -11 -15 -20t-24 -9h-163q-13 0 -24.5 10t-14.5 23l-209 692 l-10 -696q0 -12 -8.5 -20.5t-20.5 -8.5h-189q-12 0 -20 8.5t-8 20.5z" />
<glyph unicode="n" horiz-adv-x="1105" d="M111 29v1372q0 12 8 20.5t20 8.5h250q21 0 31 -29l317 -821l13 -58v879q0 12 8 20.5t20 8.5h189q12 0 20 -8.5t8 -20.5v-1372q0 -12 -8 -20.5t-20 -8.5h-213q-11 0 -22.5 9t-16.5 20l-359 884v-884q0 -12 -8 -20.5t-20 -8.5h-189q-12 0 -20 8.5t-8 20.5z" />
<glyph unicode="o" horiz-adv-x="1114" d="M102 184v1061q0 28 21 49l117 115q21 21 53 21h528q32 0 53 -21l115 -115q23 -23 23 -53v-1051q0 -30 -23 -53l-115 -117q-20 -20 -69 -20h-518q-27 0 -47 20l-117 117q-21 21 -21 47zM348 289q0 -9 6 -15l29 -28h348l29 28q6 6 6 15v841q0 11 -6 15l-35 33q-6 6 -12 6 h-310q-8 0 -14 -6l-35 -33q-6 -6 -6 -15v-841z" />
<glyph unicode="p" horiz-adv-x="1064" d="M111 29v1372q0 12 8 20.5t20 8.5h652q32 0 53 -21l114 -115q23 -25 23 -53v-526q0 -30 -23 -53l-114 -115q-23 -23 -53 -23h-435v-495q0 -12 -8 -20.5t-20 -8.5h-189q-12 0 -20 8.5t-8 20.5zM356 772h326q8 0 12 4l35 35q4 4 4 8v316q0 6 -4 10l-37 35q-4 4 -10 4h-326 v-412z" />
<glyph unicode="q" horiz-adv-x="1107" d="M98 184v1059q0 28 21 49l117 115q23 23 53 23h528q28 0 53 -23l115 -115q23 -25 23 -53v-1049q0 -30 -23 -53l-51 -51l96 -170q8 -12 8 -27q0 -9 -8.5 -15.5t-19.5 -6.5h-176q-18 0 -37 29l-68 104h-440q-32 0 -53 23l-117 114q-21 21 -21 47zM344 289q0 -6 6 -15l29 -28 h348l29 28q6 6 6 15v839q0 9 -6 15l-35 35q-6 6 -12 6h-310q-8 0 -14 -6l-35 -35q-6 -6 -6 -15v-839z" />
<glyph unicode="r" horiz-adv-x="1075" d="M111 29v1372q0 12 8 20.5t20 8.5h652q4 1 8 1q24 0 45 -22l114 -115q11 -11 17 -24.5t6 -21.5v-7v-520q0 -36 -23 -59l-120 -121l206 -510q2 -5 2 -10t-3 -11q-6 -10 -23 -10h-195q-11 0 -21.5 9t-15.5 20l-202 497h-230v-497q0 -12 -8 -20.5t-20 -8.5h-189 q-12 0 -20 8.5t-8 20.5zM356 772h324q8 0 14 6l33 33q6 6 6 14v310q0 6 -4 10l-35 33q-9 6 -14 6h-324v-412z" />
<glyph unicode="s" horiz-adv-x="1101" d="M96 184v209q0 11 8.5 20t20.5 9h188q12 0 20.5 -9t8.5 -20v-147h367q4 0 10 6l35 33q6 4 6 14v240q0 8 -6 14l-33 33q-6 6 -14 6h-426q-26 0 -48 22l-116 115q-21 21 -21 51v461q0 30 23 53l114 115q21 21 54 21h528q32 0 53 -21l115 -115q23 -25 23 -53v-215 q0 -12 -8.5 -20.5t-20.5 -8.5h-189q-12 0 -20 8.5t-8 20.5v158h-361q-7 0 -16 -6l-35 -33q-6 -4 -6 -15v-237q0 -8 6 -14l35 -35q6 -6 16 -6h416q32 0 53 -21l115 -115q23 -26 23 -53v-459q0 -30 -23 -53l-115 -117q-20 -20 -53 -20h-528q-21 0 -30.5 4.5t-23.5 18.5 l-116 114q-21 21 -21 47z" />
<glyph unicode="t" horiz-adv-x="960" d="M41 1212v189q0 12 8.5 20.5t20.5 8.5h821q11 0 20 -8.5t9 -20.5v-189q0 -12 -9 -20t-20 -8h-289v-1159q0 -10 -6.5 -17.5t-15.5 -7.5h-199q-9 0 -17 7.5t-8 17.5v1159h-286q-12 0 -20.5 8t-8.5 20z" />
<glyph unicode="u" horiz-adv-x="1116" d="M102 190v1211q0 12 8.5 20.5t20.5 8.5h188q12 0 20.5 -8.5t8.5 -20.5v-1112q0 -9 6 -15l29 -28h348l29 28q6 6 6 15v1112q0 12 8.5 20.5t20.5 8.5h188q11 0 20 -8.5t9 -20.5v-1211q0 -30 -23 -53l-115 -117q-17 -20 -53 -20h-528q-33 0 -53 20l-117 117q-21 21 -21 53z " />
<glyph unicode="v" horiz-adv-x="1044" d="M18 1393q-1 3 -1 7q0 10 6 18q8 12 20 12h201q24 0 30 -29l246 -1055l246 1055q6 29 31 29h200q12 0 21 -13q7 -10 7 -18q0 -3 -1 -6l-354 -1356q-4 -17 -15.5 -27t-23.5 -10h-219q-11 0 -23.5 11t-15.5 22z" />
<glyph unicode="w" horiz-adv-x="1296" d="M61 1401q0 12 8.5 20.5t20.5 8.5h189q12 0 20 -8.5t8 -20.5l58 -864l163 426q10 28 37 28h164q12 0 23.5 -8t15.5 -20l164 -426l57 864q0 12 8.5 20.5t20.5 8.5h188q11 0 20 -8.5t9 -20.5l-111 -1372q0 -10 -7.5 -19.5t-18.5 -9.5h-201q-22 0 -31 29l-219 635l-219 -635 q-9 -29 -29 -29h-202q-9 0 -17 9t-10 20z" />
<glyph unicode="x" horiz-adv-x="1056" d="M31 10q-4 5 -4.5 12.5t4.5 18.5l354 725l-317 635q-6 10 4.5 19.5t23.5 9.5h201q17 0 31 -29l200 -357l201 357q15 29 29 29h203q12 0 21.5 -10.5t2.5 -26.5l-315 -627l354 -723q6 -10 6 -19q0 -5 -2 -10q-5 -14 -27 -14h-208q-11 0 -21.5 9t-15.5 20l-228 452l-227 -452 q-17 -29 -39 -29h-207q-15 0 -24 10z" />
<glyph unicode="y" horiz-adv-x="1085" d="M12 1397q-3 4 -3 8q0 7 7 14q12 11 25 11h207q22 0 39 -29l256 -514l256 514q17 29 39 29h206q13 0 24 -11q8 -7 8 -14q0 -4 -3 -8l-407 -738v-630q0 -12 -7.5 -20.5t-17.5 -8.5h-199q-9 0 -15.5 8.5t-6.5 20.5v630z" />
<glyph unicode="z" horiz-adv-x="1013" d="M68 29v190q0 12 6 21l549 944h-527q-12 0 -20 8t-8 20v189q0 12 8 20.5t20 8.5h822q11 0 19.5 -8.5t8.5 -20.5v-184q0 -7 -10 -27l-551 -944h533q11 0 19.5 -8.5t8.5 -20.5v-188q0 -12 -8.5 -20.5t-19.5 -8.5h-822q-12 0 -20 8.5t-8 20.5z" />
<glyph unicode="|" horiz-adv-x="503" d="M129 29v1368q0 12 8.5 20t20.5 8h188q12 0 20.5 -8t8.5 -20v-1368q0 -12 -8.5 -20.5t-20.5 -8.5h-188q-12 0 -20.5 8.5t-8.5 20.5z" />
<glyph unicode="&#x2000;" horiz-adv-x="720" />
<glyph unicode="&#x2001;" horiz-adv-x="1440" />
<glyph unicode="&#x2002;" horiz-adv-x="720" />
<glyph unicode="&#x2003;" horiz-adv-x="1440" />
<glyph unicode="&#x2004;" horiz-adv-x="480" />
<glyph unicode="&#x2005;" horiz-adv-x="360" />
<glyph unicode="&#x2006;" horiz-adv-x="240" />
<glyph unicode="&#x2007;" horiz-adv-x="240" />
<glyph unicode="&#x2008;" horiz-adv-x="180" />
<glyph unicode="&#x2009;" horiz-adv-x="288" />
<glyph unicode="&#x200a;" horiz-adv-x="80" />
<glyph unicode="&#x2013;" horiz-adv-x="1067" d="M88 643v188q0 11 7.5 19.5t17.5 9.5h835q12 0 21.5 -8.5t9.5 -20.5v-188q0 -12 -9.5 -20.5t-21.5 -8.5h-835q-10 1 -17.5 9.5t-7.5 19.5z" />
<glyph unicode="&#x2014;" horiz-adv-x="1538" d="M88 643v188q0 11 7.5 19.5t17.5 9.5h1306q12 0 21.5 -8.5t9.5 -20.5v-188q0 -12 -9.5 -20.5t-21.5 -8.5h-1306q-10 1 -17.5 9.5t-7.5 19.5z" />
<glyph unicode="&#x2018;" horiz-adv-x="380" d="M68 1180v221q0 11 8 20t20 9h189q12 0 20 -9t8 -20v-332q0 -12 -10 -18t-27 2l-180 96q-28 14 -28 31z" />
<glyph unicode="&#x2019;" horiz-adv-x="380" d="M68 1069v332q0 11 8 20t20 9h189q12 0 20 -9t8 -20v-221q0 -17 -28 -31l-181 -96q-17 -7 -26.5 -1.5t-9.5 17.5z" />
<glyph unicode="&#x201c;" horiz-adv-x="708" d="M68 1178v221q0 12 8 21.5t20 9.5h187q12 0 21 -9.5t9 -21.5v-330q0 -12 -10 -17.5t-29 1.5l-180 96q-26 12 -26 29zM395 1178v221q0 12 8.5 21.5t20.5 9.5h186q12 0 21.5 -9.5t9.5 -21.5v-330q0 -12 -10 -17.5t-29 1.5l-180 96q-27 12 -27 29z" />
<glyph unicode="&#x201d;" horiz-adv-x="708" d="M68 1069v332q0 12 8 20.5t20 8.5h189q11 0 19.5 -8.5t8.5 -20.5v-221q0 -17 -28 -31l-181 -96q-19 -7 -27.5 -1.5t-8.5 17.5zM395 1069v332q0 12 8.5 20.5t20.5 8.5h188q11 0 20 -8.5t9 -20.5v-221q0 -16 -29 -31l-180 -96q-19 -7 -28 -1.5t-9 17.5z" />
<glyph unicode="&#x2022;" horiz-adv-x="774" d="M119 522v439q0 25 17 42t42 17h418q25 0 42 -17t17 -42v-439q0 -21 -17.5 -36t-41.5 -15h-418q-23 0 -41 15t-18 36z" />
<glyph unicode="&#x202f;" horiz-adv-x="288" />
<glyph unicode="&#x2044;" horiz-adv-x="1042" d="M45.5 9.5q-7.5 9.5 1.5 29.5l696 1362q15 29 29 29h203q18 0 24.5 -10t-0.5 -27l-684 -1364q-5 -11 -16.5 -20t-22.5 -9h-206q-17 0 -24.5 9.5z" />
<glyph unicode="&#x205f;" horiz-adv-x="360" />
<glyph unicode="&#xe000;" horiz-adv-x="1433" d="M0 0v1434h1434v-1434h-1434z" />
</font>
</defs>
</svg>
